<svg width="1440" height="1579" viewBox="0 0 1440 1579" fill="none" xmlns="http://www.w3.org/2000/svg">
<g clip-path="url(#clip0_183_769)">
<g style="mix-blend-mode:multiply">
<g style="mix-blend-mode:multiply">
<path d="M1195.12 82.48C1190.48 82.48 1186.7 79.96 1186.7 76.85C1186.7 73.74 1190.48 71.22 1195.12 71.22C1199.76 71.22 1203.54 73.74 1203.54 76.85C1203.54 79.96 1199.76 82.48 1195.12 82.48ZM1195.12 72.3C1191.07 72.3 1187.77 74.34 1187.77 76.85C1187.77 79.36 1191.07 81.4 1195.12 81.4C1199.17 81.4 1202.47 79.36 1202.47 76.85C1202.47 74.34 1199.17 72.3 1195.12 72.3Z" fill="#75ADD4"/>
</g>
<g style="mix-blend-mode:multiply">
<path d="M1193.87 90.79C1183.77 90.79 1175.55 85.4 1175.55 78.78C1175.55 72.16 1183.77 66.77 1193.87 66.77C1203.97 66.77 1212.19 72.16 1212.19 78.78C1212.19 85.4 1203.97 90.79 1193.87 90.79ZM1193.87 67.84C1184.36 67.84 1176.63 72.75 1176.63 78.78C1176.63 84.81 1184.37 89.72 1193.87 89.72C1203.37 89.72 1211.12 84.81 1211.12 78.78C1211.12 72.75 1203.38 67.84 1193.87 67.84Z" fill="#75ADD4"/>
</g>
<g style="mix-blend-mode:multiply">
<path d="M1217.35 68.13C1212.71 68.13 1208.93 65.61 1208.93 62.5C1208.93 59.39 1212.71 56.87 1217.35 56.87C1221.99 56.87 1225.77 59.39 1225.77 62.5C1225.77 65.61 1221.99 68.13 1217.35 68.13ZM1217.35 57.95C1213.3 57.95 1210 59.99 1210 62.5C1210 65.01 1213.3 67.05 1217.35 67.05C1221.4 67.05 1224.7 65.01 1224.7 62.5C1224.7 59.99 1221.4 57.95 1217.35 57.95Z" fill="#75ADD4"/>
</g>
<g style="mix-blend-mode:multiply">
<path d="M1216.1 76.45C1206 76.45 1197.78 71.06 1197.78 64.44C1197.78 57.82 1206 52.43 1216.1 52.43C1226.2 52.43 1234.42 57.82 1234.42 64.44C1234.42 71.06 1226.2 76.45 1216.1 76.45ZM1216.1 53.5C1206.59 53.5 1198.86 58.41 1198.86 64.44C1198.86 70.47 1206.6 75.38 1216.1 75.38C1225.6 75.38 1233.35 70.47 1233.35 64.44C1233.35 58.41 1225.61 53.5 1216.1 53.5Z" fill="#75ADD4"/>
</g>
<g style="mix-blend-mode:multiply">
<path d="M1217.69 96.6C1213.05 96.6 1209.27 94.08 1209.27 90.97C1209.27 87.86 1213.05 85.34 1217.69 85.34C1222.33 85.34 1226.11 87.86 1226.11 90.97C1226.11 94.08 1222.33 96.6 1217.69 96.6ZM1217.69 86.42C1213.64 86.42 1210.34 88.46 1210.34 90.97C1210.34 93.48 1213.64 95.52 1217.69 95.52C1221.74 95.52 1225.04 93.48 1225.04 90.97C1225.04 88.46 1221.74 86.42 1217.69 86.42Z" fill="#75ADD4"/>
</g>
<g style="mix-blend-mode:multiply">
<path d="M1216.44 104.92C1206.34 104.92 1198.12 99.53 1198.12 92.91C1198.12 86.29 1206.34 80.9 1216.44 80.9C1226.54 80.9 1234.76 86.29 1234.76 92.91C1234.76 99.53 1226.54 104.92 1216.44 104.92ZM1216.44 81.97C1206.93 81.97 1199.2 86.88 1199.2 92.91C1199.2 98.94 1206.94 103.85 1216.44 103.85C1225.94 103.85 1233.69 98.94 1233.69 92.91C1233.69 86.88 1225.95 81.97 1216.44 81.97Z" fill="#75ADD4"/>
</g>
<g style="mix-blend-mode:multiply">
<path d="M1239.92 82.26C1235.28 82.26 1231.5 79.74 1231.5 76.63C1231.5 73.52 1235.28 71 1239.92 71C1244.56 71 1248.34 73.52 1248.34 76.63C1248.34 79.74 1244.56 82.26 1239.92 82.26ZM1239.92 72.07C1235.87 72.07 1232.57 74.11 1232.57 76.62C1232.57 79.13 1235.87 81.17 1239.92 81.17C1243.97 81.17 1247.27 79.13 1247.27 76.62C1247.27 74.11 1243.97 72.07 1239.92 72.07Z" fill="#75ADD4"/>
</g>
<g style="mix-blend-mode:multiply">
<path d="M1238.67 90.57C1228.57 90.57 1220.35 85.18 1220.35 78.56C1220.35 71.94 1228.57 66.55 1238.67 66.55C1248.77 66.55 1256.99 71.94 1256.99 78.56C1256.99 85.18 1248.77 90.57 1238.67 90.57ZM1238.67 67.62C1229.16 67.62 1221.42 72.53 1221.42 78.56C1221.42 84.59 1229.16 89.5 1238.67 89.5C1248.18 89.5 1255.91 84.59 1255.91 78.56C1255.91 72.53 1248.17 67.62 1238.67 67.62Z" fill="#75ADD4"/>
</g>
<g style="mix-blend-mode:multiply">
<path d="M1163.66 75.86C1159.01 75.86 1155.23 73.34 1155.23 70.23C1155.23 67.12 1159.01 64.6 1163.66 64.6C1168.31 64.6 1172.08 67.12 1172.08 70.23C1172.08 73.34 1168.3 75.86 1163.66 75.86ZM1163.66 65.67C1159.61 65.67 1156.31 67.71 1156.31 70.22C1156.31 72.73 1159.61 74.77 1163.66 74.77C1167.71 74.77 1171.01 72.73 1171.01 70.22C1171.01 67.71 1167.71 65.67 1163.66 65.67Z" fill="#75ADD4"/>
</g>
<g style="mix-blend-mode:multiply">
<path d="M1162.41 84.17C1152.31 84.17 1144.09 78.78 1144.09 72.16C1144.09 65.54 1152.31 60.15 1162.41 60.15C1172.51 60.15 1180.73 65.54 1180.73 72.16C1180.73 78.78 1172.51 84.17 1162.41 84.17ZM1162.41 61.22C1152.9 61.22 1145.16 66.13 1145.16 72.16C1145.16 78.19 1152.9 83.1 1162.41 83.1C1171.92 83.1 1179.66 78.19 1179.66 72.16C1179.66 66.13 1171.92 61.22 1162.41 61.22Z" fill="#75ADD4"/>
</g>
<g style="mix-blend-mode:multiply">
<path d="M1185.89 61.51C1181.25 61.51 1177.47 58.99 1177.47 55.88C1177.47 52.77 1181.25 50.25 1185.89 50.25C1190.53 50.25 1194.31 52.77 1194.31 55.88C1194.31 58.99 1190.53 61.51 1185.89 61.51ZM1185.89 51.33C1181.84 51.33 1178.54 53.37 1178.54 55.88C1178.54 58.39 1181.84 60.43 1185.89 60.43C1189.94 60.43 1193.24 58.39 1193.24 55.88C1193.24 53.37 1189.94 51.33 1185.89 51.33Z" fill="#75ADD4"/>
</g>
<g style="mix-blend-mode:multiply">
<path d="M1184.64 69.82C1174.54 69.82 1166.32 64.43 1166.32 57.81C1166.32 51.19 1174.54 45.8 1184.64 45.8C1194.74 45.8 1202.96 51.19 1202.96 57.81C1202.96 64.43 1194.74 69.82 1184.64 69.82ZM1184.64 46.88C1175.13 46.88 1167.4 51.79 1167.4 57.82C1167.4 63.85 1175.14 68.76 1184.64 68.76C1194.14 68.76 1201.89 63.85 1201.89 57.82C1201.89 51.79 1194.15 46.88 1184.64 46.88Z" fill="#75ADD4"/>
</g>
<g style="mix-blend-mode:multiply">
<path d="M1165.03 115.14C1160.39 115.14 1156.61 112.62 1156.61 109.51C1156.61 106.4 1160.39 103.88 1165.03 103.88C1169.67 103.88 1173.45 106.4 1173.45 109.51C1173.45 112.62 1169.67 115.14 1165.03 115.14ZM1165.03 104.96C1160.98 104.96 1157.68 107 1157.68 109.51C1157.68 112.02 1160.98 114.06 1165.03 114.06C1169.08 114.06 1172.38 112.02 1172.38 109.51C1172.38 107 1169.08 104.96 1165.03 104.96Z" fill="#75ADD4"/>
</g>
<g style="mix-blend-mode:multiply">
<path d="M1163.77 123.46C1153.67 123.46 1145.45 118.07 1145.45 111.45C1145.45 104.83 1153.67 99.44 1163.77 99.44C1173.87 99.44 1182.09 104.83 1182.09 111.45C1182.09 118.07 1173.87 123.46 1163.77 123.46ZM1163.77 100.51C1154.26 100.51 1146.52 105.42 1146.52 111.45C1146.52 117.48 1154.26 122.39 1163.77 122.39C1173.28 122.39 1181.02 117.48 1181.02 111.45C1181.02 105.42 1173.28 100.51 1163.77 100.51Z" fill="#75ADD4"/>
</g>
<g style="mix-blend-mode:multiply">
<path d="M1187.26 100.79C1182.62 100.79 1178.84 98.27 1178.84 95.16C1178.84 92.05 1182.62 89.53 1187.26 89.53C1191.9 89.53 1195.68 92.05 1195.68 95.16C1195.68 98.27 1191.9 100.79 1187.26 100.79ZM1187.26 90.61C1183.21 90.61 1179.91 92.65 1179.91 95.16C1179.91 97.67 1183.21 99.71 1187.26 99.71C1191.31 99.71 1194.61 97.67 1194.61 95.16C1194.61 92.65 1191.31 90.61 1187.26 90.61Z" fill="#75ADD4"/>
</g>
<g style="mix-blend-mode:multiply">
<path d="M1186 109.11C1175.9 109.11 1167.68 103.72 1167.68 97.1C1167.68 90.48 1175.9 85.09 1186 85.09C1196.1 85.09 1204.32 90.48 1204.32 97.1C1204.32 103.72 1196.1 109.11 1186 109.11ZM1186 86.16C1176.49 86.16 1168.76 91.07 1168.76 97.1C1168.76 103.13 1176.5 108.04 1186 108.04C1195.5 108.04 1203.25 103.13 1203.25 97.1C1203.25 91.07 1195.51 86.16 1186 86.16Z" fill="#75ADD4"/>
</g>
<g style="mix-blend-mode:multiply">
<path d="M1203.33 117.35C1198.69 117.35 1194.91 114.83 1194.91 111.72C1194.91 108.61 1198.69 106.09 1203.33 106.09C1207.97 106.09 1211.76 108.61 1211.76 111.72C1211.76 114.83 1207.98 117.35 1203.33 117.35ZM1203.33 107.17C1199.28 107.17 1195.98 109.21 1195.98 111.72C1195.98 114.23 1199.28 116.27 1203.33 116.27C1207.38 116.27 1210.68 114.23 1210.68 111.72C1210.68 109.21 1207.38 107.17 1203.33 107.17Z" fill="#75ADD4"/>
</g>
<g style="mix-blend-mode:multiply">
<path d="M1202.08 125.66C1191.98 125.66 1183.76 120.27 1183.76 113.65C1183.76 107.03 1191.98 101.64 1202.08 101.64C1212.18 101.64 1220.4 107.03 1220.4 113.65C1220.4 120.27 1212.18 125.66 1202.08 125.66ZM1202.08 102.71C1192.57 102.71 1184.83 107.62 1184.83 113.65C1184.83 119.68 1192.57 124.59 1202.08 124.59C1211.59 124.59 1219.32 119.68 1219.32 113.65C1219.32 107.62 1211.58 102.71 1202.08 102.71Z" fill="#75ADD4"/>
</g>
<g style="mix-blend-mode:multiply">
<path d="M1155.11 95.06C1150.47 95.06 1146.69 92.54 1146.69 89.43C1146.69 86.32 1150.47 83.8 1155.11 83.8C1159.75 83.8 1163.53 86.32 1163.53 89.43C1163.53 92.54 1159.75 95.06 1155.11 95.06ZM1155.11 84.88C1151.06 84.88 1147.76 86.92 1147.76 89.43C1147.76 91.94 1151.06 93.98 1155.11 93.98C1159.16 93.98 1162.46 91.94 1162.46 89.43C1162.46 86.92 1159.16 84.88 1155.11 84.88Z" fill="#75ADD4"/>
</g>
<g style="mix-blend-mode:multiply">
<path d="M1153.86 103.37C1143.76 103.37 1135.54 97.98 1135.54 91.36C1135.54 84.74 1143.76 79.35 1153.86 79.35C1163.96 79.35 1172.18 84.74 1172.18 91.36C1172.18 97.98 1163.96 103.37 1153.86 103.37ZM1153.86 80.42C1144.35 80.42 1136.61 85.33 1136.61 91.36C1136.61 97.39 1144.35 102.3 1153.86 102.3C1163.37 102.3 1171.1 97.39 1171.1 91.36C1171.1 85.33 1163.36 80.42 1153.86 80.42Z" fill="#75ADD4"/>
</g>
<g style="mix-blend-mode:multiply">
<path d="M1195.28 134.03C1173.45 134.03 1152.95 129.13 1137.53 120.22C1121.74 111.13 1113.04 98.88 1113.04 85.72C1113.04 72.56 1121.04 61.32 1135.57 52.38C1136.21 51.98 1136.87 51.59 1137.54 51.2C1161.01 37.64 1195.94 33.62 1226.51 40.95C1236.41 43.33 1245.33 46.78 1253 51.21C1266.59 59.01 1275.15 69.5 1277.11 80.76C1277.39 82.43 1277.53 84.1 1277.53 85.72C1277.53 98.87 1268.82 111.13 1253 120.23C1237.6 129.13 1217.1 134.04 1195.28 134.04V134.03ZM1195.24 38.4C1174.23 38.4 1153.62 43.15 1138.08 52.13C1137.41 52.51 1136.77 52.9 1136.14 53.29C1121.94 62.03 1114.12 73.55 1114.12 85.72C1114.12 97.89 1122.63 110.41 1138.08 119.3C1153.33 128.11 1173.65 132.97 1195.29 132.97C1216.93 132.97 1237.24 128.12 1252.47 119.31C1267.94 110.41 1276.46 98.49 1276.46 85.73C1276.46 84.16 1276.32 82.56 1276.06 80.95C1274.16 70.01 1265.78 59.78 1252.47 52.15C1244.89 47.77 1236.07 44.36 1226.27 42C1216.21 39.59 1205.67 38.42 1195.24 38.42V38.4Z" fill="#75ADD4"/>
</g>
<g style="mix-blend-mode:multiply">
<path d="M1195.28 161.2C1173.45 161.2 1152.95 156.3 1137.53 147.4C1121.74 138.26 1113.04 126 1113.04 112.89V85.72H1114.11V112.89C1114.11 125.6 1122.62 137.53 1138.07 146.47C1153.32 155.28 1173.64 160.13 1195.28 160.13C1216.92 160.13 1237.23 155.28 1252.47 146.47C1267.94 137.53 1276.46 125.61 1276.46 112.89V85.72H1277.53V112.89C1277.53 126.01 1268.82 138.27 1253.01 147.4C1237.61 156.3 1217.11 161.2 1195.29 161.2H1195.28Z" fill="#75ADD4"/>
</g>
</g>
<g style="mix-blend-mode:multiply">
<path d="M442.34 945.975C440.58 945.925 439.23 945.725 437.51 944.825L357.16 898.435C356.13 897.775 355.14 897.005 355.01 895.375V889.155L356.08 889.115C356.17 890.175 356.68 890.675 357.72 891.345L438.03 937.715C439.55 938.505 440.76 938.685 442.35 938.735C443.9 938.695 445.12 938.515 446.66 937.705L507.09 902.815C508.12 902.165 508.63 901.655 508.71 900.595L509.78 900.635V906.815C509.64 908.495 508.65 909.265 507.64 909.905L447.17 944.825C445.43 945.725 444.04 945.935 442.35 945.985L442.34 945.975ZM356.07 891.445V895.335C356.15 896.345 356.67 896.855 357.71 897.525L438.02 943.885C439.54 944.675 440.76 944.865 442.34 944.905C443.89 944.865 445.11 944.675 446.65 943.875L507.08 908.985C508.08 908.345 508.62 907.815 508.7 906.765V902.915C508.37 903.225 508 903.475 507.63 903.715L447.16 938.635C445.42 939.545 444.03 939.755 442.34 939.795C440.57 939.745 439.23 939.545 437.51 938.645L357.16 892.255C356.78 892.015 356.41 891.755 356.08 891.445H356.07Z" fill="#E83A8D"/>
<path d="M442.32 939.785C440.57 939.785 438.82 939.395 437.48 938.635L438.02 937.705C440.39 939.075 444.25 939.075 446.62 937.705L507.07 902.805C508.11 902.205 508.69 901.435 508.69 900.635C508.69 899.835 508.11 899.065 507.07 898.455L426.74 852.075C424.41 850.725 420.47 850.725 418.14 852.075L357.69 886.975C356.64 887.575 356.07 888.355 356.07 889.155C356.07 889.955 356.65 890.725 357.69 891.325L357.16 892.255C355.77 891.455 355 890.355 355 889.155C355 887.955 355.77 886.855 357.16 886.055L417.61 851.155C420.28 849.615 424.62 849.615 427.29 851.155L507.62 897.535C509.01 898.335 509.78 899.445 509.78 900.645C509.78 901.845 509.01 902.945 507.62 903.745L447.17 938.645C445.84 939.415 444.08 939.795 442.33 939.795L442.32 939.785Z" fill="#E83A8D"/>
<path d="M444.4 933.965L444.13 933.815L366.84 889.195L422.93 856.815L423.2 856.965L500.49 901.585L444.4 933.965ZM368.99 889.195L444.4 932.735L498.34 901.595L422.93 858.055L368.99 889.195Z" fill="#E83A8D"/>
<path d="M387.74 878.365L373.73 870.275L400.98 854.535L414.99 862.625L387.73 878.365H387.74ZM375.87 870.275L387.74 877.125L412.85 862.625L400.98 855.775L375.87 870.275Z" fill="#E83A8D"/>
<path d="M387.2 882.985V877.435L414.46 861.705V867.255L387.2 882.995V882.985ZM388.28 878.055V881.135L413.39 866.635V863.555L388.28 878.055Z" fill="#E83A8D"/>
<path d="M388.28 882.985L384.03 880.525V879.885L377 875.825L374.27 877.405V869.345L388.28 877.435V882.985ZM385.1 879.915L387.21 881.135V878.055L375.34 871.205V875.555L376.99 874.595L385.09 879.275V879.915H385.1Z" fill="#E83A8D"/>
<path d="M458.9 916.285L434.15 901.995L460.3 886.895L485.05 901.185L458.9 916.285ZM436.29 902.005L458.9 915.055L482.91 901.195L460.3 888.145L436.29 902.005Z" fill="#E83A8D"/>
<path d="M475.76 903.545C475.2 903.545 474.64 903.415 474.21 903.165C473.7 902.865 473.41 902.425 473.41 901.955C473.41 901.485 473.7 901.045 474.21 900.745C475.08 900.245 476.45 900.245 477.32 900.745C477.83 901.035 478.12 901.475 478.12 901.955C478.12 902.435 477.83 902.865 477.32 903.165C476.88 903.415 476.32 903.545 475.76 903.545ZM474.74 901.675C474.56 901.785 474.48 901.895 474.48 901.955C474.48 902.015 474.56 902.135 474.74 902.235C475.28 902.545 476.24 902.545 476.78 902.235C476.96 902.125 477.04 902.015 477.04 901.955C477.04 901.895 476.96 901.785 476.78 901.675C476.24 901.365 475.28 901.355 474.74 901.675Z" fill="#E83A8D"/>
<path d="M475.76 904.205C475.09 904.205 474.44 904.045 473.93 903.765C473.5 903.515 473.19 903.225 473 902.895C472.83 902.605 472.74 902.285 472.74 901.955C472.74 901.625 472.83 901.315 473 901.015C473.19 900.675 473.49 900.385 473.88 900.165L474.01 900.095C475.04 899.565 476.64 899.585 477.65 900.165L478.26 900.515L478.19 900.585C478.19 900.585 478.22 900.615 478.24 900.635L478.31 900.595L478.27 900.665C478.37 900.775 478.46 900.895 478.53 901.015C478.7 901.305 478.78 901.625 478.78 901.955C478.78 902.285 478.69 902.595 478.52 902.895L478.33 903.165C478.15 903.385 477.92 903.585 477.65 903.745L477.51 903.815C477.01 904.075 476.39 904.215 475.76 904.215V904.205ZM473.91 902.325C473.91 902.325 473.92 902.345 473.93 902.355C474.03 902.525 474.19 902.685 474.41 902.805C475.2 903.235 476.4 903.215 477.11 902.805L477.16 902.775C477.35 902.655 477.5 902.505 477.59 902.355L477.64 902.275C477.69 902.175 477.71 902.065 477.71 901.955C477.71 901.875 477.7 901.795 477.67 901.715L477.38 902.225C477.3 902.365 477.17 902.485 476.99 902.595C476.35 902.965 475.23 902.965 474.59 902.625C474.44 902.535 474.33 902.455 474.25 902.365L474.2 902.335H473.92L473.91 902.325ZM474.33 901.155C474.15 901.275 474.01 901.405 473.93 901.555C473.9 901.615 473.88 901.665 473.86 901.715L474.54 901.325C475.14 900.975 476.19 900.955 476.85 901.255H476.87L476.98 901.315L477.24 901.175C477.24 901.175 477.16 901.125 477.12 901.105L477.01 901.045C476.28 900.685 475.08 900.715 474.42 901.105L474.34 901.155H474.33Z" fill="#E83A8D"/>
<path d="M466.47 903.835C465.91 903.835 465.36 903.715 464.92 903.465C464.41 903.165 464.12 902.725 464.12 902.255C464.12 901.785 464.41 901.345 464.92 901.045C465.79 900.545 467.16 900.545 468.03 901.045C468.54 901.335 468.83 901.775 468.83 902.245C468.83 902.715 468.54 903.155 468.03 903.455C467.59 903.705 467.03 903.835 466.47 903.835ZM466.47 901.745C466.1 901.745 465.72 901.825 465.45 901.985C465.27 902.085 465.19 902.205 465.19 902.265C465.19 902.325 465.27 902.445 465.45 902.545C465.99 902.855 466.94 902.855 467.49 902.545C467.67 902.435 467.76 902.325 467.76 902.265C467.76 902.205 467.68 902.095 467.5 901.985C467.23 901.825 466.85 901.745 466.48 901.745H466.47Z" fill="#E83A8D"/>
<path d="M466.47 904.505C465.8 904.505 465.15 904.355 464.64 904.065C464.24 903.835 463.96 903.575 463.75 903.255C463.54 902.885 463.45 902.575 463.45 902.255C463.45 901.935 463.54 901.615 463.71 901.325C463.9 900.985 464.21 900.695 464.59 900.475L464.72 900.405C465.22 900.145 465.84 900.005 466.47 900.005L467.01 900.045C467.48 900.105 467.93 900.245 468.31 900.445C468.74 900.695 469.05 900.985 469.24 901.325C469.41 901.625 469.5 901.935 469.5 902.255C469.5 902.575 469.41 902.895 469.24 903.185C469.05 903.525 468.74 903.815 468.36 904.035L468.16 904.175V904.155L467.56 904.495V904.365C467.22 904.455 466.85 904.505 466.47 904.505ZM464.62 902.625C464.62 902.625 464.63 902.645 464.64 902.665C464.76 902.865 464.92 903.005 465.12 903.115C465.83 903.505 466.87 903.525 467.59 903.235L467.46 903.015C467.17 903.125 466.84 903.185 466.48 903.185C466.17 903.185 465.71 903.135 465.3 902.925C465.12 902.825 465.01 902.735 464.93 902.635H464.63L464.62 902.625ZM468.16 902.255V902.495L468.41 902.125C468.39 902.035 468.36 901.945 468.31 901.855C468.21 901.685 468.04 901.525 467.83 901.405C467.43 901.185 466.97 901.085 466.48 901.085H466.34C465.89 901.105 465.46 901.225 465.13 901.405L465.05 901.455C464.93 901.535 464.82 901.625 464.74 901.725H465.09L465.26 901.625C465.59 901.435 466.02 901.325 466.5 901.335C466.94 901.335 467.35 901.425 467.66 901.595C467.79 901.675 467.89 901.745 467.97 901.825L468.16 901.925V902.245V902.255Z" fill="#E83A8D"/>
<path d="M444.43 903.505C443.87 903.505 443.31 903.375 442.88 903.125C442.37 902.835 442.08 902.395 442.08 901.925C442.08 901.455 442.37 901.015 442.88 900.715C443.75 900.215 445.11 900.215 445.99 900.715C446.5 901.005 446.79 901.445 446.79 901.925C446.79 902.405 446.5 902.835 445.99 903.135C445.55 903.385 444.99 903.515 444.43 903.515V903.505ZM444.44 901.405C444.07 901.405 443.69 901.485 443.42 901.635C443.24 901.745 443.15 901.855 443.15 901.915C443.15 901.975 443.23 902.085 443.41 902.195C443.95 902.505 444.91 902.505 445.45 902.195C445.63 902.095 445.71 901.975 445.71 901.915C445.71 901.855 445.63 901.745 445.45 901.635C445.18 901.475 444.8 901.405 444.43 901.405H444.44Z" fill="#E83A8D"/>
<path d="M444.44 904.165C443.77 904.165 443.11 904.005 442.6 903.725C442.19 903.485 441.91 903.225 441.71 902.915C441.5 902.555 441.41 902.245 441.41 901.915C441.41 901.585 441.5 901.275 441.67 900.975C441.86 900.645 442.16 900.355 442.54 900.125L443.35 899.655V899.805C443.7 899.705 444.06 899.655 444.43 899.655L444.97 899.695C445.44 899.755 445.89 899.895 446.27 900.095C446.68 900.335 446.96 900.595 447.16 900.905C447.37 901.275 447.46 901.585 447.46 901.905C447.46 902.225 447.37 902.535 447.21 902.835C447.02 903.165 446.73 903.445 446.38 903.655C445.81 903.985 445.14 904.155 444.44 904.155V904.165ZM442.66 901.435C442.66 901.435 442.62 901.495 442.6 901.525C442.52 901.655 442.48 901.795 442.48 901.925C442.48 902.055 442.52 902.195 442.6 902.325C442.72 902.515 442.88 902.655 443.08 902.775C443.47 902.985 443.95 903.095 444.43 903.095C444.94 903.095 445.43 902.975 445.78 902.775C446.01 902.635 446.17 902.485 446.27 902.315C446.34 902.185 446.38 902.055 446.38 901.925C446.38 901.825 446.36 901.725 446.31 901.615L446.07 902.145C445.96 902.345 445.81 902.455 445.7 902.525C444.96 902.955 443.9 902.925 443.25 902.575C443.05 902.455 442.94 902.365 442.87 902.265L442.56 901.945L442.88 901.565C442.88 901.565 442.91 901.515 442.95 901.475V901.425L443.22 901.275C443.41 901.165 443.65 901.085 443.9 901.035V900.985H444.44C444.88 900.985 445.3 901.075 445.62 901.245C445.69 901.285 445.75 901.325 445.81 901.365H446.18C446.08 901.245 445.95 901.145 445.8 901.055C445.41 900.845 444.93 900.735 444.45 900.735H444.31C443.86 900.755 443.43 900.865 443.1 901.055L442.67 901.425L442.66 901.435Z" fill="#E83A8D"/>
<path d="M467.74 903.305V900.905L474.5 900.875V903.275L467.74 903.305ZM468.81 901.975V902.225L473.42 902.205V901.955L468.81 901.975Z" fill="#E83A8D"/>
<path d="M455.8 904.785L445.49 903.295L445.83 900.915L456.14 902.405L455.8 904.785ZM446.71 902.395L454.9 903.575L454.94 903.325L446.75 902.145L446.71 902.405V902.395Z" fill="#E83A8D"/>
<path d="M457.25 905.005C456.69 905.005 456.13 904.875 455.7 904.625C455.19 904.335 454.9 903.895 454.9 903.425C454.9 902.955 455.19 902.505 455.7 902.215C456.57 901.715 457.93 901.715 458.81 902.215C459.32 902.505 459.61 902.945 459.61 903.425C459.61 903.905 459.32 904.335 458.81 904.635C458.37 904.885 457.81 905.015 457.25 905.015V905.005ZM456.24 903.145C456.06 903.255 455.98 903.365 455.98 903.425C455.98 903.485 456.06 903.595 456.24 903.705C456.78 904.015 457.73 904.015 458.28 903.705C458.46 903.605 458.54 903.485 458.54 903.425C458.54 903.365 458.46 903.255 458.28 903.145C457.74 902.835 456.79 902.835 456.25 903.145H456.24Z" fill="#E83A8D"/>
<path d="M457.25 905.665C456.58 905.665 455.93 905.505 455.41 905.225C455 904.995 454.72 904.725 454.53 904.415L454.47 904.305C454.32 904.055 454.23 903.745 454.23 903.415C454.23 903.085 454.32 902.775 454.49 902.475C454.69 902.135 454.99 901.845 455.36 901.625C456.41 901.025 458.09 901.025 459.13 901.625C459.52 901.855 459.81 902.135 460.01 902.475C460.18 902.775 460.27 903.085 460.27 903.405C460.27 903.725 460.18 904.055 460.01 904.335C459.82 904.655 459.54 904.935 459.19 905.145C458.62 905.475 457.95 905.645 457.25 905.645V905.665ZM455.3 903.385C455.3 903.385 455.3 903.415 455.3 903.425C455.3 903.555 455.34 903.695 455.41 903.825C455.53 904.025 455.69 904.165 455.89 904.285C456.28 904.495 456.75 904.605 457.24 904.605C457.75 904.605 458.24 904.485 458.59 904.285C458.83 904.135 458.98 903.995 459.08 903.825C459.15 903.695 459.19 903.565 459.19 903.435C459.19 903.305 459.15 903.175 459.08 903.035C458.98 902.865 458.81 902.705 458.59 902.575C457.88 902.165 456.61 902.165 455.89 902.575C455.68 902.695 455.51 902.855 455.41 903.035C455.36 903.125 455.32 903.225 455.31 903.315L455.72 903.035C455.8 902.945 455.9 902.865 456.03 902.795C456.44 902.555 456.92 902.505 457.25 902.505C457.71 902.505 458.15 902.605 458.47 902.795C458.64 902.895 458.77 903.005 458.85 903.135L458.93 903.265V903.555L458.86 903.675C458.79 903.815 458.67 903.925 458.5 904.025C457.78 904.435 456.71 904.425 456.06 904.075C455.87 903.965 455.75 903.865 455.67 903.755L455.3 903.375V903.385Z" fill="#E83A8D"/>
<path d="M458.63 904.465L458.39 902.075L465.19 901.365L465.44 903.755L458.64 904.465H458.63ZM459.56 903.035L459.59 903.285L464.25 902.795L464.22 902.545L459.56 903.035Z" fill="#E83A8D"/>
<path d="M479.05 905.065C478.84 905.065 478.64 905.015 478.45 904.905L476.45 903.745C476.24 903.615 476.09 903.465 475.99 903.265C475.74 902.775 475.84 902.205 476.23 901.835C476.62 901.465 477.19 901.395 477.66 901.655L479.67 902.815C479.87 902.925 480.02 903.085 480.13 903.295C480.38 903.785 480.28 904.355 479.9 904.725C479.67 904.945 479.37 905.055 479.07 905.055L479.05 905.065ZM478.98 903.975C478.98 903.975 479.07 904.025 479.14 903.955C479.21 903.885 479.18 903.825 479.17 903.795L477.12 902.585C477.12 902.585 477.04 902.535 476.97 902.605C476.9 902.675 476.93 902.735 476.94 902.755L478.99 903.965L478.98 903.975Z" fill="#E83A8D"/>
<path d="M463.42 914.085C463.21 914.085 463 914.035 462.82 913.925L460.51 912.595C459.96 912.275 459.75 911.605 460.03 911.035C460.17 910.735 460.44 910.505 460.75 910.405C461.07 910.305 461.42 910.345 461.71 910.505L464.02 911.835C464.56 912.155 464.77 912.825 464.51 913.395C464.36 913.705 464.1 913.925 463.78 914.025C463.67 914.065 463.55 914.075 463.43 914.075L463.42 914.085ZM463.36 912.995C463.36 912.995 463.44 913.015 463.46 913.005C463.57 912.875 463.55 912.805 463.48 912.765L461.18 911.435C461.18 911.435 461.09 911.415 461.07 911.425C460.96 911.555 460.98 911.625 461.05 911.665L463.35 912.995H463.36ZM457.66 910.755C457.45 910.755 457.25 910.705 457.06 910.595L454.75 909.265C454.2 908.945 454 908.275 454.27 907.705C454.42 907.405 454.68 907.175 454.99 907.075C455.31 906.975 455.66 907.015 455.95 907.175L458.26 908.515C458.8 908.835 459.01 909.505 458.75 910.075C458.6 910.375 458.34 910.605 458.02 910.705C457.9 910.745 457.78 910.755 457.66 910.755ZM455.35 908.095C455.35 908.095 455.32 908.095 455.31 908.095C455.2 908.225 455.22 908.295 455.29 908.335L457.59 909.665L458.25 909.835L457.76 909.605C457.79 909.535 457.77 909.465 457.7 909.425L455.41 908.095C455.41 908.095 455.36 908.075 455.34 908.075L455.35 908.095ZM451.9 907.425C451.69 907.425 451.48 907.375 451.3 907.265L448.99 905.935C448.44 905.605 448.24 904.945 448.5 904.375C448.65 904.075 448.91 903.845 449.23 903.745C449.55 903.645 449.9 903.685 450.19 903.845L452.49 905.175C453.04 905.495 453.24 906.165 452.97 906.735C452.83 907.035 452.56 907.265 452.24 907.365C452.12 907.405 452.01 907.415 451.89 907.415L451.9 907.425ZM449.59 904.765C449.59 904.765 449.56 904.765 449.55 904.765C449.44 904.895 449.46 904.965 449.53 905.005L451.83 906.335L452.49 906.505L452.01 906.275C452.04 906.205 452.01 906.145 451.96 906.105L449.66 904.775C449.66 904.775 449.61 904.755 449.59 904.755V904.765ZM446.13 904.095C445.92 904.095 445.71 904.045 445.53 903.935L445.12 903.695C444.58 903.365 444.37 902.705 444.64 902.135C444.78 901.835 445.05 901.605 445.36 901.505C445.68 901.405 446.03 901.445 446.32 901.615L446.73 901.855C447.27 902.175 447.48 902.845 447.21 903.405C447.07 903.705 446.8 903.935 446.48 904.035C446.36 904.075 446.24 904.085 446.12 904.085L446.13 904.095ZM445.72 902.535C445.72 902.535 445.69 902.535 445.68 902.535C445.57 902.665 445.59 902.735 445.66 902.775L446.06 903.005L446.72 903.175L446.24 902.945C446.27 902.885 446.24 902.815 446.19 902.775L445.78 902.535C445.78 902.535 445.73 902.515 445.72 902.515V902.535Z" fill="#E83A8D"/>
<path d="M473.86 907.725C473.65 907.725 473.45 907.675 473.26 907.565L470.96 906.235C470.68 906.065 470.49 905.815 470.4 905.505C470.28 905.015 470.44 904.535 470.83 904.235C471.22 903.935 471.73 903.905 472.15 904.145L474.46 905.475C474.74 905.635 474.93 905.895 475.02 906.205C475.15 906.695 474.98 907.175 474.59 907.475C474.38 907.635 474.12 907.715 473.86 907.715V907.725ZM473.8 906.635C473.8 906.635 473.9 906.665 473.94 906.635C473.99 906.605 474 906.555 473.99 906.495L471.63 905.085C471.63 905.085 471.53 905.055 471.49 905.085C471.44 905.115 471.43 905.165 471.44 905.225C471.44 905.255 471.47 905.285 471.51 905.305L473.8 906.625V906.635ZM468.1 904.395C467.9 904.395 467.69 904.345 467.5 904.235L467.15 904.035C466.87 903.875 466.68 903.615 466.59 903.305C466.47 902.825 466.63 902.345 467.02 902.045C467.41 901.755 467.93 901.715 468.35 901.955L468.7 902.155C468.98 902.315 469.17 902.565 469.26 902.875C469.39 903.365 469.22 903.845 468.83 904.145C468.61 904.315 468.36 904.395 468.1 904.395ZM467.76 902.865C467.76 902.865 467.71 902.865 467.68 902.895C467.63 902.925 467.62 902.975 467.63 903.035L468.03 903.315C468.03 903.315 468.13 903.335 468.17 903.305C468.22 903.275 468.23 903.225 468.22 903.165C468.21 903.125 468.19 903.105 468.16 903.085L467.82 902.885C467.82 902.885 467.77 902.865 467.75 902.865H467.76Z" fill="#E83A8D"/>
<path d="M468.53 911.135C468.32 911.135 468.11 911.085 467.93 910.975L465.62 909.645C465.07 909.315 464.87 908.645 465.14 908.085C465.29 907.785 465.55 907.555 465.87 907.455C466.19 907.355 466.54 907.395 466.83 907.565L469.14 908.895C469.68 909.215 469.89 909.885 469.63 910.445C469.48 910.755 469.22 910.975 468.9 911.075C468.78 911.115 468.66 911.125 468.54 911.125L468.53 911.135ZM468.46 910.045C468.46 910.045 468.55 910.065 468.57 910.055C468.67 909.925 468.65 909.855 468.59 909.815L466.29 908.485L465.63 908.315L466.11 908.545C466.08 908.615 466.11 908.685 466.17 908.725L468.47 910.045H468.46ZM462.77 907.805C462.56 907.805 462.35 907.755 462.17 907.645L459.86 906.315C459.31 905.995 459.11 905.325 459.38 904.755C459.52 904.455 459.79 904.225 460.11 904.125C460.43 904.025 460.78 904.065 461.06 904.235L463.37 905.565C463.92 905.885 464.12 906.555 463.85 907.125C463.71 907.425 463.44 907.655 463.12 907.755C463 907.795 462.88 907.805 462.76 907.805H462.77ZM460.46 905.145C460.46 905.145 460.43 905.145 460.42 905.145C460.31 905.275 460.33 905.345 460.39 905.385L462.69 906.715C462.69 906.715 462.77 906.735 462.8 906.725C462.91 906.595 462.89 906.525 462.82 906.485L460.52 905.155C460.52 905.155 460.47 905.135 460.46 905.135V905.145Z" fill="#E83A8D"/>
<path d="M435.51 911.415C435.41 911.415 435.3 911.405 435.2 911.375C434.89 911.295 434.63 911.095 434.47 910.815C434.14 910.245 434.34 909.505 434.91 909.175L436.6 908.205C437.17 907.875 437.91 908.075 438.24 908.635C438.4 908.915 438.44 909.235 438.36 909.545C438.28 909.855 438.08 910.115 437.8 910.275L436.11 911.255C435.92 911.365 435.72 911.415 435.51 911.415ZM437.2 909.115C437.2 909.115 437.15 909.115 437.13 909.135L435.44 910.105C435.38 910.145 435.36 910.225 435.39 910.285C435.42 910.335 435.51 910.365 435.57 910.335L437.26 909.355C437.31 909.325 437.34 909.235 437.31 909.175C437.29 909.135 437.24 909.115 437.2 909.115Z" fill="#E83A8D"/>
<path d="M426.21 916.785C426.1 916.785 426 916.775 425.89 916.745C425.58 916.665 425.32 916.465 425.17 916.185C425.01 915.915 424.97 915.585 425.05 915.275C425.13 914.965 425.33 914.705 425.61 914.545L431.52 911.135C431.8 910.975 432.13 910.935 432.43 911.015C432.73 911.095 433 911.295 433.15 911.575C433.31 911.845 433.35 912.175 433.27 912.485C433.19 912.795 432.99 913.055 432.71 913.215L426.8 916.625C426.62 916.735 426.41 916.785 426.2 916.785H426.21ZM431.79 911.595L432.06 912.055L426.15 915.475L426.1 915.645L426.54 916.155L426.27 915.695L432.18 912.275L432.23 912.105L431.79 911.595Z" fill="#E83A8D"/>
<path d="M439.86 913.925C439.45 913.925 439.04 913.715 438.82 913.325C438.66 913.045 438.61 912.715 438.7 912.405C438.78 912.095 438.98 911.835 439.26 911.675L440.94 910.695C441.22 910.535 441.55 910.485 441.86 910.575C442.17 910.655 442.43 910.855 442.58 911.135C442.74 911.415 442.78 911.735 442.7 912.045C442.62 912.355 442.42 912.615 442.14 912.775L440.45 913.745C440.26 913.855 440.06 913.905 439.85 913.905L439.86 913.925ZM441.21 911.175L441.48 911.635L439.79 912.615L439.28 913.055L439.74 912.785C439.78 912.845 439.85 912.865 439.92 912.835L441.61 911.865L441.65 911.685L441.21 911.175Z" fill="#E83A8D"/>
<path d="M430.56 919.295C430.15 919.295 429.74 919.085 429.52 918.695C429.19 918.125 429.38 917.385 429.96 917.055L435.88 913.635C436.16 913.475 436.48 913.435 436.79 913.515C437.1 913.595 437.36 913.795 437.52 914.075C437.68 914.355 437.72 914.675 437.64 914.985C437.56 915.295 437.36 915.555 437.08 915.715L431.17 919.135C430.98 919.245 430.78 919.295 430.57 919.295H430.56ZM436.41 914.565L430.49 917.985C430.43 918.025 430.41 918.095 430.44 918.155C430.48 918.215 430.55 918.235 430.62 918.205L436.53 914.785L436.58 914.615L436.4 914.565H436.41Z" fill="#E83A8D"/>
<path d="M444.2 916.435C443.79 916.435 443.38 916.225 443.16 915.835C442.83 915.265 443.02 914.525 443.6 914.195L445.29 913.215C445.86 912.885 446.6 913.075 446.93 913.655C447.26 914.235 447.06 914.965 446.49 915.295L444.8 916.275C444.61 916.385 444.4 916.435 444.2 916.435ZM445.89 914.135C445.89 914.135 445.85 914.135 445.83 914.155L444.14 915.135C444.08 915.175 444.06 915.245 444.09 915.315C444.13 915.375 444.2 915.395 444.27 915.365L445.96 914.385C446.02 914.345 446.04 914.265 446.01 914.205C445.99 914.165 445.95 914.145 445.9 914.145L445.89 914.135Z" fill="#E83A8D"/>
<path d="M434.91 921.805C434.49 921.805 434.09 921.585 433.87 921.195C433.71 920.925 433.67 920.605 433.75 920.295C433.83 919.985 434.03 919.725 434.31 919.565L440.22 916.155C440.8 915.825 441.53 916.025 441.86 916.595C442.19 917.175 441.99 917.915 441.42 918.235L435.5 921.655C435.31 921.765 435.11 921.815 434.91 921.815V921.805ZM440.82 917.065C440.82 917.065 440.77 917.065 440.75 917.085L434.84 920.495L434.79 920.675C434.82 920.735 434.9 920.755 434.96 920.725L440.87 917.305C440.93 917.265 440.95 917.195 440.92 917.125C440.9 917.085 440.86 917.065 440.81 917.065H440.82Z" fill="#E83A8D"/>
<path d="M436.5 882.545C436.33 882.545 436.16 882.505 436 882.415L422.06 874.365C421.58 874.085 421.41 873.465 421.68 872.985C421.96 872.495 422.58 872.335 423.07 872.605L437.01 880.655C437.24 880.785 437.41 881.005 437.48 881.275C437.55 881.535 437.51 881.805 437.38 882.035C437.19 882.365 436.85 882.545 436.5 882.545Z" fill="#E83A8D"/>
<path d="M431.85 885.235C431.67 885.235 431.5 885.185 431.34 885.095L423.58 880.625C423.1 880.345 422.93 879.725 423.22 879.235C423.35 879.005 423.57 878.835 423.83 878.765C424.09 878.695 424.37 878.735 424.6 878.865L432.35 883.335C432.83 883.615 433 884.235 432.72 884.715C432.58 884.955 432.36 885.125 432.1 885.195C432.01 885.215 431.93 885.225 431.84 885.225L431.85 885.235Z" fill="#E83A8D"/>
<path d="M427.19 887.915C427.02 887.915 426.85 887.875 426.69 887.785L420.5 884.215C417.81 882.665 416.7 882.025 416.29 881.785C416.29 881.785 416.25 881.765 416.24 881.755C416.13 881.695 416.09 881.665 416.08 881.665C416.08 881.665 416.07 881.635 416.06 881.635C415.69 881.445 415.14 881.125 414.31 880.645C413.83 880.365 413.66 879.745 413.94 879.255C414.08 879.015 414.3 878.855 414.56 878.785C414.82 878.715 415.1 878.755 415.33 878.885C417.72 880.265 419.05 881.035 419.76 881.495C419.82 881.505 419.88 881.525 419.94 881.555L420.03 881.605C420.03 881.605 420.04 881.605 420.05 881.615L427.69 886.025C427.92 886.165 428.09 886.375 428.16 886.635C428.23 886.895 428.19 887.175 428.06 887.405C427.87 887.725 427.53 887.905 427.18 887.905L427.19 887.915Z" fill="#E83A8D"/>
<path d="M422.54 890.605C422.37 890.605 422.2 890.565 422.04 890.475L405 880.635C404.52 880.355 404.36 879.735 404.63 879.255C404.77 879.015 404.99 878.845 405.25 878.775C405.51 878.705 405.78 878.745 406.01 878.885L423.04 888.715C423.27 888.845 423.44 889.065 423.51 889.325C423.58 889.585 423.55 889.865 423.41 890.105C423.22 890.425 422.88 890.605 422.53 890.605H422.54Z" fill="#E83A8D"/>
<path d="M417.92 893.275C417.74 893.275 417.57 893.225 417.41 893.135L405.03 885.995C404.55 885.715 404.38 885.095 404.66 884.615C404.95 884.125 405.57 883.965 406.05 884.245L418.43 891.385C418.66 891.515 418.83 891.735 418.9 891.995C418.97 892.255 418.94 892.525 418.8 892.765C418.66 893.005 418.44 893.175 418.18 893.245C418.09 893.265 418.01 893.275 417.92 893.275Z" fill="#E83A8D"/>
<path d="M413.26 895.965C413.08 895.965 412.91 895.915 412.75 895.825L392.63 884.205C392.15 883.925 391.98 883.305 392.26 882.825C392.4 882.595 392.61 882.425 392.87 882.355C393.13 882.285 393.4 882.325 393.64 882.455L413.77 894.075C414.01 894.215 414.17 894.435 414.24 894.695C414.31 894.955 414.27 895.225 414.13 895.465C414 895.695 413.78 895.865 413.52 895.935C413.43 895.955 413.35 895.965 413.26 895.965Z" fill="#E83A8D"/>
<path d="M408.6 898.655C408.43 898.655 408.26 898.615 408.11 898.525L405.01 896.735C404.53 896.455 404.36 895.835 404.64 895.355C404.91 894.875 405.53 894.705 406.02 894.985L409.12 896.775C409.35 896.905 409.52 897.125 409.59 897.385C409.66 897.645 409.63 897.925 409.49 898.155C409.3 898.475 408.96 898.655 408.61 898.655H408.6Z" fill="#E83A8D"/>
<path d="M407.67 902.465C407.49 902.465 407.32 902.415 407.16 902.325L382.47 888.075C381.99 887.785 381.82 887.165 382.1 886.685C382.23 886.455 382.45 886.285 382.71 886.215C382.97 886.145 383.25 886.175 383.48 886.315L408.17 900.565C408.65 900.845 408.82 901.465 408.54 901.945C408.4 902.185 408.18 902.355 407.92 902.425C407.83 902.445 407.75 902.455 407.66 902.455L407.67 902.465Z" fill="#E83A8D"/>
<path d="M383.27 888.135C383.09 888.135 382.87 888.085 382.74 887.845L382.56 887.525L382.85 887.135C383.01 886.955 383.3 886.805 383.8 887.115L385.08 887.915L383.59 888.105L383.57 887.935C383.57 887.935 383.63 887.885 383.66 887.855L383.52 887.725L383.46 887.675L383.25 888.015C383.32 888.015 383.42 888.015 383.51 887.975V888.125C383.45 888.125 383.37 888.145 383.28 888.145L383.27 888.135ZM383.46 887.105L383.5 887.405L383.69 887.335C383.63 887.225 383.54 887.155 383.46 887.105Z" fill="#E83A8D"/>
<path d="M387.81 891.225C387.72 891.225 387.63 891.215 387.54 891.185C387.28 891.115 387.06 890.945 386.93 890.715C386.8 890.485 386.76 890.205 386.83 889.945C386.9 889.685 387.07 889.465 387.3 889.335L387.75 889.075C388.23 888.805 388.85 888.965 389.13 889.445C389.41 889.925 389.24 890.545 388.76 890.825L388.3 891.085C388.15 891.175 387.97 891.215 387.8 891.215L387.81 891.225Z" fill="#E83A8D"/>
<path d="M405.07 902.395C404.98 902.395 404.89 902.385 404.8 902.355C404.54 902.285 404.32 902.115 404.19 901.875C403.91 901.395 404.08 900.775 404.56 900.495C416.61 893.545 422.68 890.035 428.73 886.545L442.36 878.675C442.84 878.395 443.46 878.565 443.74 879.045C444.02 879.535 443.85 880.155 443.37 880.435L430.53 887.855C429.84 888.255 429.39 888.515 429.09 888.655V888.675L426 890.465C417.27 895.505 409.13 900.205 405.56 902.265C405.4 902.355 405.23 902.405 405.05 902.405L405.07 902.395Z" fill="#E83A8D"/>
<path d="M393.95 894.765C393.6 894.765 393.26 894.585 393.07 894.265C392.79 893.775 392.96 893.155 393.44 892.875L393.89 892.615C394.37 892.335 394.99 892.505 395.27 892.985C395.41 893.215 395.44 893.495 395.37 893.755C395.3 894.015 395.13 894.235 394.9 894.365L394.45 894.625C394.29 894.715 394.12 894.755 393.95 894.755V894.765Z" fill="#E83A8D"/>
<path d="M400.04 898.235C399.69 898.235 399.35 898.055 399.16 897.735C399.02 897.495 398.99 897.225 399.06 896.965C399.13 896.705 399.3 896.485 399.53 896.355L399.98 896.095C400.46 895.815 401.08 895.985 401.36 896.465C401.64 896.945 401.47 897.565 401 897.845L400.54 898.105C400.38 898.195 400.21 898.235 400.04 898.235Z" fill="#E83A8D"/>
<path d="M414.56 906.435C414.47 906.435 414.38 906.425 414.29 906.395C414.03 906.325 413.81 906.155 413.68 905.925C413.55 905.695 413.51 905.415 413.58 905.155C413.65 904.895 413.82 904.675 414.05 904.545L415.73 903.575C416.21 903.295 416.83 903.465 417.11 903.945C417.25 904.185 417.28 904.455 417.21 904.715C417.14 904.975 416.97 905.195 416.74 905.325L415.06 906.295C414.91 906.385 414.73 906.425 414.56 906.425V906.435Z" fill="#E83A8D"/>
</g>
<g style="mix-blend-mode:multiply">
<path d="M1406.54 667.75H1354.71V609H1295.96V557.17H1354.71V498.42H1406.54V557.17H1465.29V609H1406.54V667.75ZM1355.78 666.68H1405.47V607.93H1464.22V558.24H1405.47V499.49H1355.78V558.24H1297.03V607.93H1355.78V666.68Z" fill="#75ADD4"/>
</g>
<g style="mix-blend-mode:multiply">
<path d="M1244.48 1010.21L1243.51 1009.76L1250.71 994.2V952.67C1250.71 948.98 1255.4 945.98 1261.17 945.98C1266.94 945.98 1271.63 948.98 1271.63 952.67V994.2L1278.74 1009.64L1277.77 1010.09L1270.57 994.32V952.67C1270.57 949.57 1266.36 947.05 1261.18 947.05C1256 947.05 1251.79 949.57 1251.79 952.67V994.43L1251.74 994.54L1244.49 1010.21H1244.48Z" fill="#75ADD4"/>
</g>
<g style="mix-blend-mode:multiply">
<path d="M1261.1 1081.35C1257.14 1081.35 1253.23 1081.02 1249.48 1080.37C1242.84 1079.22 1236.84 1077.09 1232.13 1074.2C1231.28 1073.68 1230.46 1073.13 1229.72 1072.57C1228.58 1071.72 1227.55 1070.82 1226.63 1069.89C1226.02 1069.26 1225.45 1068.61 1224.95 1067.95C1224.45 1067.29 1223.99 1066.6 1223.61 1065.91C1222.41 1063.76 1221.8 1061.51 1221.8 1059.23C1221.8 1058.67 1221.85 1058.07 1221.94 1057.4L1222.49 1057.32L1221.96 1057.24C1222.06 1056.63 1222.2 1056.02 1222.39 1055.41C1222.76 1054.2 1223.31 1053.01 1224.03 1051.86L1243.57 1009.6H1244.87C1247.68 1005.92 1254 1003.56 1261.09 1003.56C1268.18 1003.56 1274.29 1005.84 1277.17 1009.39H1278.61L1298.21 1051.97C1298.88 1053.05 1299.42 1054.23 1299.79 1055.41C1299.98 1056.02 1300.12 1056.63 1300.22 1057.24V1057.35C1300.34 1058.07 1300.39 1058.67 1300.39 1059.23C1300.39 1067.85 1291.83 1075.5 1278.04 1079.2C1276.9 1079.5 1275.72 1079.78 1274.53 1080.03C1270.87 1080.78 1267.03 1081.21 1263.11 1081.32C1262.45 1081.34 1261.78 1081.35 1261.1 1081.35ZM1244.27 1010.67L1224.99 1052.37C1224.29 1053.5 1223.78 1054.61 1223.43 1055.73C1223.26 1056.29 1223.13 1056.85 1223.04 1057.41L1222.49 1057.48L1223.02 1057.56C1222.93 1058.18 1222.89 1058.73 1222.89 1059.24C1222.89 1061.33 1223.45 1063.41 1224.56 1065.39C1224.92 1066.04 1225.35 1066.68 1225.82 1067.31C1226.29 1067.93 1226.83 1068.55 1227.41 1069.15C1228.28 1070.04 1229.28 1070.91 1230.37 1071.72C1231.09 1072.26 1231.87 1072.78 1232.7 1073.29C1237.3 1076.11 1243.17 1078.19 1249.67 1079.32C1253.98 1080.07 1258.57 1080.38 1263.08 1080.25C1266.94 1080.14 1270.72 1079.71 1274.32 1078.98C1275.49 1078.74 1276.65 1078.47 1277.76 1078.17C1290.85 1074.66 1299.32 1067.23 1299.32 1059.24C1299.32 1058.72 1299.28 1058.18 1299.19 1057.56L1299.7 1057.33L1299.17 1057.41C1299.08 1056.86 1298.95 1056.29 1298.78 1055.73C1298.44 1054.63 1297.94 1053.54 1297.28 1052.48L1277.94 1010.46H1276.66L1276.5 1010.25C1273.9 1006.83 1267.86 1004.63 1261.1 1004.63C1254.34 1004.63 1248.07 1006.96 1245.58 1010.44L1245.42 1010.66H1244.26L1244.27 1010.67Z" fill="#75ADD4"/>
</g>
<g style="mix-blend-mode:multiply">
<path d="M1261.1 1081.35C1239.44 1081.35 1221.81 1071.43 1221.81 1059.24C1221.81 1057.98 1222.01 1056.69 1222.4 1055.42L1250.7 994.2V952.67C1250.7 948.98 1255.39 945.98 1261.16 945.98C1266.93 945.98 1271.62 948.98 1271.62 952.67V994.2L1298.21 1051.98C1298.88 1053.06 1299.42 1054.23 1299.79 1055.42C1300.18 1056.7 1300.38 1057.98 1300.38 1059.24C1300.38 1071.43 1282.76 1081.35 1261.09 1081.35H1261.1ZM1261.17 947.05C1255.99 947.05 1251.78 949.57 1251.78 952.67V994.43L1251.73 994.54L1223.41 1055.8C1223.08 1056.91 1222.89 1058.09 1222.89 1059.24C1222.89 1070.84 1240.03 1080.28 1261.11 1080.28C1282.19 1080.28 1299.33 1070.84 1299.33 1059.24C1299.33 1058.09 1299.15 1056.91 1298.79 1055.73C1298.45 1054.63 1297.95 1053.54 1297.29 1052.48L1270.57 994.43V952.67C1270.57 949.57 1266.36 947.05 1261.18 947.05H1261.17Z" fill="#75ADD4"/>
</g>
<g style="mix-blend-mode:multiply">
<path d="M1261.1 959.36C1255.33 959.36 1250.64 956.36 1250.64 952.67C1250.64 948.98 1255.33 945.98 1261.1 945.98C1266.87 945.98 1271.56 948.98 1271.56 952.67C1271.56 956.36 1266.87 959.36 1261.1 959.36ZM1261.1 947.05C1255.92 947.05 1251.71 949.57 1251.71 952.67C1251.71 955.77 1255.92 958.29 1261.1 958.29C1266.28 958.29 1270.49 955.77 1270.49 952.67C1270.49 949.57 1266.28 947.05 1261.1 947.05Z" fill="#75ADD4"/>
</g>
<g style="mix-blend-mode:multiply">
<path d="M1261.1 1081.35C1239.44 1081.35 1221.81 1071.43 1221.81 1059.24C1221.81 1047.05 1239.43 1037.13 1261.1 1037.13C1282.77 1037.13 1300.39 1047.05 1300.39 1059.24C1300.39 1071.43 1282.77 1081.35 1261.1 1081.35ZM1261.1 1038.2C1240.03 1038.2 1222.88 1047.64 1222.88 1059.24C1222.88 1070.84 1240.02 1080.28 1261.1 1080.28C1282.18 1080.28 1299.32 1070.84 1299.32 1059.24C1299.32 1047.64 1282.18 1038.2 1261.1 1038.2Z" fill="#75ADD4"/>
</g>
<g style="mix-blend-mode:multiply">
<path d="M1261.1 1023.76C1251.33 1023.76 1243.39 1019.23 1243.39 1013.66C1243.39 1008.09 1251.34 1003.56 1261.1 1003.56C1270.86 1003.56 1278.81 1008.09 1278.81 1013.66C1278.81 1019.23 1270.86 1023.76 1261.1 1023.76ZM1261.1 1004.63C1251.92 1004.63 1244.46 1008.68 1244.46 1013.66C1244.46 1018.64 1251.93 1022.69 1261.1 1022.69C1270.27 1022.69 1277.74 1018.64 1277.74 1013.66C1277.74 1008.68 1270.27 1004.63 1261.1 1004.63Z" fill="#75ADD4"/>
</g>
<g style="mix-blend-mode:multiply">
<path d="M29.0502 1085.63H27.9802V1196.89H29.0502V1085.63Z" fill="#E83A8D"/>
<path d="M84.1501 1140.72H-27.1099V1141.79H84.1501V1140.72Z" fill="#E83A8D"/>
<path d="M67.4749 1101.54L-11.1978 1180.21L-10.4411 1180.97L68.2316 1102.3L67.4749 1101.54Z" fill="#E83A8D"/>
<path d="M-10.4411 1101.55L-11.1978 1102.3L67.475 1180.98L68.2316 1180.22L-10.4411 1101.55Z" fill="#E83A8D"/>
</g>
<g style="mix-blend-mode:multiply">
<path d="M106.86 660.26C105.45 660.26 103.83 659.85 102.14 659.06C100.87 658.46 99.6799 657.68 98.6799 656.8C97.6199 655.86 96.8499 654.88 96.3799 653.88C95.7799 652.6 95.7299 651.35 96.2399 650.27L105.57 634.12C106.17 633.07 106.68 632.43 109.33 632.43C110.65 632.43 112.75 633.19 114.95 634.45C117.15 635.72 118.85 637.16 119.51 638.3C120.18 639.46 120.46 640.23 120.47 640.87C120.47 641.46 120.21 641.92 119.93 642.41C119.61 642.96 119.14 643.81 118.56 644.87L118.4 645.17C113.57 653.97 110.51 659.18 109.2 659.8C108.53 660.12 107.74 660.27 106.87 660.27L106.86 660.26ZM109.32 633.49C107.15 633.49 106.94 633.85 106.48 634.65L97.1699 650.76C96.8199 651.52 96.8699 652.42 97.3299 653.42C97.7299 654.27 98.4399 655.16 99.3699 655.99C100.3 656.81 101.41 657.53 102.58 658.09C104.98 659.23 107.27 659.5 108.71 658.82C109.96 658.23 115.19 648.71 117.42 644.64L117.58 644.34C118.17 643.27 118.64 642.41 118.96 641.86C119.22 641.41 119.36 641.15 119.36 640.86C119.36 640.43 119.09 639.76 118.54 638.82C117.98 637.85 116.38 636.53 114.37 635.36C112.36 634.2 110.41 633.48 109.29 633.48L109.32 633.49Z" fill="#75ADD4"/>
</g>
<g style="mix-blend-mode:multiply">
<path d="M73.8 716.6C71.82 716.6 69.71 716.01 67.77 714.89C65.17 713.39 63.24 711.14 62.47 708.72C62.4 708.51 62.34 708.29 62.29 708.08L62.27 708.01L62.35 706.88L62.65 706.09L64.41 703.02C64.75 702.44 65.27 701.99 65.95 701.68C68.06 700.74 71.54 701.28 74.6 703.04C76.65 704.22 78.31 705.79 79.28 707.47C79.75 708.29 80.03 709.09 80.11 709.85C80.18 710.6 80.05 711.29 79.72 711.85L78 714.83L77.29 715.67L76.41 716.21C76.2 716.28 75.98 716.33 75.76 716.38C75.13 716.52 74.47 716.59 73.8 716.59V716.6ZM63.36 707.91C63.4 708.07 63.45 708.24 63.5 708.4C64.19 710.57 65.94 712.6 68.31 713.96C70.68 715.33 73.31 715.83 75.54 715.34C75.71 715.3 75.87 715.26 76.03 715.21L76.65 714.81L77.14 714.22L78.79 711.34C79.03 710.93 79.11 710.47 79.06 709.95C79 709.35 78.77 708.69 78.37 708C77.5 706.49 75.98 705.06 74.09 703.97C72.2 702.88 70.2 702.28 68.45 702.28C67.65 702.28 66.97 702.41 66.41 702.65C65.94 702.86 65.58 703.17 65.36 703.55L63.64 706.53L63.41 707.16L63.37 707.9L63.36 707.91Z" fill="#75ADD4"/>
</g>
<g style="mix-blend-mode:multiply">
<path d="M77.8801 783.65C76.9501 783.65 76.0201 783.63 75.0901 783.6C71.5401 783.48 68.0101 783.12 64.2801 782.5C58.7701 781.5 53.8101 780.03 49.4901 778.13C44.5301 775.95 40.2901 773.15 36.8901 769.8H36.8701L36.7101 769.63C32.1001 764.57 31.1501 761.08 30.9401 756.04L30.8101 752.81L31.9801 755.83C32.1101 756.16 32.2501 756.49 32.4001 756.82L32.0601 756.98C32.3401 761.33 33.3701 764.39 37.4601 768.88L37.4801 768.9C40.8101 772.23 44.9901 775.01 49.9101 777.16C54.1501 779.02 59.0401 780.47 64.4301 781.45C68.1301 782.07 71.6201 782.42 75.1201 782.54C78.6001 782.66 82.0901 782.55 85.8101 782.21C91.2801 781.63 95.7501 780.73 99.9001 779.41C104.34 777.99 109.03 775.93 113.16 773.59L113.25 767.51H114.32L114.23 774.22L113.96 774.37C109.71 776.8 104.83 778.95 100.23 780.43C96.0101 781.78 91.4701 782.69 85.9501 783.28C83.1501 783.54 80.5001 783.66 77.8801 783.66V783.65Z" fill="#75ADD4"/>
</g>
<g style="mix-blend-mode:multiply">
<path d="M77.9301 777.38C71.6601 777.38 65.5501 776.68 59.7701 775.3L59.6601 775.27C55.2701 774.21 51.1901 772.79 47.5501 771.03L41.2001 767.34C38.2201 765.25 35.7901 762.91 33.9801 760.39L33.3701 759.54H33.4001C31.4501 756.55 30.4201 753.41 30.3101 750.2V749.66C30.3001 745.95 31.5401 742.34 33.9801 738.93C36.4001 735.56 39.8901 732.54 44.3601 729.97L46.9201 728.49L50.4801 730.77L49.9001 731.67L46.8901 729.74L44.8901 730.89C40.5601 733.39 37.1801 736.3 34.8601 739.54C32.6201 742.66 31.4501 745.94 31.3701 749.3V749.65C31.3701 753.13 32.5501 756.53 34.8501 759.75L35.0401 760.02C36.8001 762.4 39.1501 764.62 42.0301 766.61H42.0401L48.0301 770.08C51.6001 771.8 55.6301 773.2 59.9901 774.25L60.1001 774.28C65.7301 775.61 71.6701 776.3 77.7601 776.31H77.9201C84.1101 776.31 90.1401 775.61 95.8401 774.25C101.51 772.9 106.6 770.93 110.95 768.42L112.42 767.57L103.2 762.25L101.19 763.41C98.0801 765.21 94.4801 766.6 90.5001 767.55C86.5701 768.49 82.3801 768.98 78.0601 768.99H77.9001C73.5501 768.99 69.3201 768.51 65.3201 767.56C61.3301 766.6 57.7301 765.21 54.6301 763.42C52.8801 762.41 50.5101 760.73 49.1401 759.05L49.9701 758.37C51.2501 759.94 53.5701 761.57 55.1601 762.49C58.1701 764.23 61.6801 765.59 65.5701 766.52C69.4401 767.45 73.5401 767.92 77.7601 767.93H77.9101C82.2001 767.93 86.3501 767.45 90.2501 766.52C94.1301 765.59 97.6301 764.24 100.65 762.49L103.19 761.03L114.56 767.59L111.48 769.37C107.03 771.94 101.85 773.94 96.0801 775.32C90.3501 776.69 84.2901 777.39 78.0801 777.41H77.9101L77.9301 777.38Z" fill="#75ADD4"/>
</g>
<g style="mix-blend-mode:multiply">
<path d="M72.63 709.09L58.3 700.82C54.04 697.83 57.38 691.07 58.1 689.75L79.74 652.26C80.54 650.97 84.74 644.69 89.4 646.87L103.77 655.16L103.32 656.13C99.57 654.77 96.5 658.65 94.99 661.09L73.36 698.55C72.01 701.06 70.19 705.67 73.24 708.23L72.63 709.1V709.09ZM87.42 647.47C84.07 647.47 81.04 652.19 80.66 652.8L59.03 690.26C58.65 690.97 55.32 697.42 58.87 699.91L70.95 706.88C69.73 703.92 71.22 700.23 72.42 698.01L94.07 660.52C95.4 658.36 97.85 655.22 101.02 654.8L88.91 647.81C88.41 647.58 87.91 647.48 87.42 647.48V647.47Z" fill="#75ADD4"/>
</g>
<g style="mix-blend-mode:multiply">
<path d="M84.8199 737.03L78.1699 733.24L78.7199 732.74C83.1699 728.69 87.2299 723.58 90.4799 717.96C94.7799 710.51 96.9599 704.25 97.7699 697.01L98.8399 697.13C98.0299 704.42 95.7399 711.01 91.4199 718.49C88.2499 723.98 84.3099 728.99 79.9999 733.03L84.6299 735.66C84.7199 735.55 84.7999 735.45 84.8799 735.34C85.0299 735.15 85.1799 734.96 85.3799 734.73C89.1399 730.15 91.6699 726.75 93.8399 723.36C96.3799 719.41 98.4599 715.37 100.4 710.66C102.13 706.46 103.47 702.22 104.37 698.07C105.24 694.02 105.64 691.56 105.64 687.7H106.71C106.71 691.66 106.31 694.17 105.42 698.29C104.51 702.5 103.15 706.8 101.4 711.07C99.4299 715.84 97.3199 719.93 94.7499 723.94C92.5599 727.36 89.9999 730.8 86.1999 735.42C85.9999 735.65 85.8599 735.82 85.7199 735.99C85.5499 736.21 85.3699 736.43 85.1299 736.69L84.8399 737L84.8199 737.03Z" fill="#75ADD4"/>
</g>
<g style="mix-blend-mode:multiply">
<path d="M89.72 739.61L89 738.82C102.54 726.38 113.54 704.48 107.25 688.39L108.25 688C114.71 704.54 103.53 726.93 89.73 739.61H89.72Z" fill="#75ADD4"/>
</g>
<g style="mix-blend-mode:multiply">
<path d="M69.9999 761.58C69.8999 761.58 69.7899 761.58 69.6799 761.58V760.51C73.1299 760.57 76.6299 759.85 80.0999 758.42C81.7299 757.75 83.42 756.91 85.14 755.92C90.38 752.89 95.43 748.68 100.14 743.41C106.83 735.27 111.23 728.98 115.27 719.18C118.78 710.67 120.63 702.11 120.63 694.44C120.63 688.39 119.52 683.24 117.31 679.12C116.35 681.36 114.84 683.29 113.36 685.17L112.7 686.01C112.22 686.63 111.56 687.09 110.77 687.39C112.42 690.63 113.26 694.62 113.26 699.25C113.26 713.48 104.97 730.87 93.0999 741.55L92.3799 740.75C104.04 730.26 112.18 713.2 112.18 699.25C112.18 694.52 111.28 690.5 109.51 687.32L109.16 686.7L109.86 686.54C110.72 686.34 111.39 685.95 111.85 685.36L112.51 684.51C114.16 682.4 115.87 680.23 116.69 677.69L117.05 676.57L117.65 677.58C120.32 682.03 121.68 687.7 121.68 694.44C121.68 702.25 119.8 710.94 116.24 719.59C112.15 729.52 107.71 735.87 100.94 744.11C96.1299 749.48 90.9999 753.76 85.6599 756.85C83.8999 757.86 82.1599 758.72 80.4899 759.41C76.9899 760.85 73.4499 761.58 69.9799 761.58H69.9999Z" fill="#75ADD4"/>
</g>
<g style="mix-blend-mode:multiply">
<path d="M60.93 762.45L28.55 743.76L63.53 723.56L95.9201 742.26L60.94 762.45H60.93ZM30.69 743.75L60.93 761.21L93.77 742.25L63.53 724.79L30.69 743.75Z" fill="#75ADD4"/>
</g>
<g style="mix-blend-mode:multiply">
<path d="M61.46 765.92L28.51 747.32L28.55 743.13L61.45 761.51V765.92H61.46ZM29.6 746.7L60.4 764.08V762.14L29.62 744.95L29.6 746.7Z" fill="#75ADD4"/>
</g>
<g style="mix-blend-mode:multiply">
<path d="M60.93 766.15C60.3 766.15 59.78 765.64 59.78 765V761.29H59.92C60.02 761.1 60.17 760.94 60.36 760.83L60.89 761.76C60.89 761.76 60.86 761.8 60.86 761.82V764.99L60.88 764.98L61.02 765.03L94.88 745.48L94.92 742.24H95.99V745.95H95.85C95.75 746.14 95.6 746.29 95.42 746.4L61.56 765.95C61.41 766.06 61.18 766.13 60.94 766.13L60.93 766.15Z" fill="#75ADD4"/>
</g>
<g style="mix-blend-mode:multiply">
<path d="M84.2301 715.07C83.5501 715.07 82.92 714.92 82.35 714.59C79.65 713.04 74.92 710.3 72.23 708.75C69.5 707.17 69.41 702.2 72.03 697.66L93.66 660.19C96.28 655.65 100.63 653.24 103.36 654.81L104.75 655.61C107.38 657.13 112.47 660.07 113.48 660.65C116.05 662.13 116.32 666.55 114.11 670.93L113.15 670.45C115.06 666.65 114.97 662.76 112.94 661.58C111.93 661 106.84 658.06 104.21 656.54L102.82 655.74C100.64 654.48 96.87 656.77 94.58 660.72L72.95 698.19C70.66 702.15 70.57 706.55 72.75 707.81C75.44 709.37 80.18 712.1 82.87 713.65C85.05 714.9 88.82 712.63 91.11 708.67L104.21 685.98L105.14 686.52L92.04 709.21C89.96 712.8 86.8 715.06 84.22 715.06L84.2301 715.07Z" fill="#75ADD4"/>
</g>
<g style="mix-blend-mode:multiply">
<path d="M106.12 688.75C105.93 688.75 105.73 688.7 105.55 688.6L101.94 686.49C99.9399 685.02 99.1699 682.53 99.7099 679.3C100.17 676.55 101.52 673.86 102.62 672.26L102.86 671.92C108.32 664.52 112.24 666.83 116.02 669.05L116.61 669.39C117.11 669.66 117.33 670.26 117.14 670.79C117.03 671.08 116.82 671.31 116.54 671.43C116.26 671.56 115.95 671.57 115.67 671.46C113.67 670.71 111.74 671.73 110.46 672.71C109.19 673.7 108.02 675.07 107.09 676.68C106.16 678.29 105.55 679.99 105.33 681.59C105.11 683.18 105.2 685.37 106.85 686.73C107.28 687.08 107.39 687.69 107.11 688.18C106.9 688.55 106.51 688.75 106.11 688.75H106.12ZM110.28 667.96C108.35 667.96 106.27 669.1 103.73 672.55L103.5 672.87C102.46 674.37 101.2 676.9 100.77 679.48C100.44 681.44 100.49 684.09 102.59 685.64L102.69 685.71L106.09 687.67L106.17 687.55C104.59 686.24 103.91 684.07 104.27 681.44C104.5 679.71 105.16 677.88 106.16 676.14C107.16 674.41 108.42 672.93 109.8 671.86C111.9 670.23 114.12 669.74 116.04 670.46L116.09 670.32C115.98 670.26 115.86 670.19 115.73 670.11L115.48 669.97C113.71 668.93 112.06 667.96 110.28 667.96Z" fill="#75ADD4"/>
</g>
<g style="mix-blend-mode:multiply">
<path d="M107.95 688.62C107.19 688.62 106.48 688.44 105.85 688.08C104.35 687.21 103.52 685.43 103.52 683.07C103.52 678.42 106.79 672.75 110.82 670.43C112.87 669.25 114.83 669.07 116.33 669.94C117.83 670.81 118.66 672.59 118.66 674.95C118.66 679.6 115.39 685.27 111.36 687.59C110.17 688.28 109.01 688.62 107.95 688.62ZM114.23 670.46C113.36 670.46 112.38 670.76 111.36 671.35C107.63 673.5 104.6 678.76 104.6 683.06C104.6 685.03 105.24 686.48 106.39 687.15C107.55 687.82 109.12 687.64 110.82 686.66C114.55 684.51 117.58 679.25 117.58 674.95C117.58 672.98 116.94 671.53 115.79 670.86C115.33 670.59 114.8 670.46 114.22 670.46H114.23Z" fill="#75ADD4"/>
</g>
<g style="mix-blend-mode:multiply">
<path d="M107.96 688.01C107.3 688.01 106.69 687.86 106.17 687.55C105.64 687.25 105.21 686.8 104.87 686.22C104.39 685.39 104.15 684.32 104.15 683.06C104.15 680.91 104.87 678.47 106.18 676.2C107.52 673.88 109.28 672.02 111.14 670.95C112.99 669.88 114.75 669.71 116.04 670.45C116.56 670.75 117 671.2 117.33 671.78C117.81 672.62 118.06 673.69 118.06 674.94C118.06 677.06 117.36 679.46 116.08 681.71L116.01 681.84C114.69 684.13 112.93 685.98 111.07 687.06C109.98 687.69 108.94 688.01 107.97 688.01H107.96ZM114.23 671.07C113.46 671.07 112.59 671.34 111.66 671.88C109.96 672.86 108.34 674.58 107.11 676.71C105.88 678.85 105.21 681.1 105.21 683.07C105.21 684.13 105.41 685.04 105.79 685.7C106.03 686.11 106.33 686.42 106.69 686.63C107.64 687.18 109.03 687 110.52 686.14C112.19 685.17 113.78 683.51 115 681.43L115.07 681.3C116.3 679.18 116.97 676.92 116.97 674.95C116.97 673.9 116.77 672.99 116.39 672.32C116.15 671.91 115.85 671.59 115.49 671.39C115.13 671.18 114.71 671.08 114.23 671.08V671.07Z" fill="#75ADD4"/>
</g>
<g style="mix-blend-mode:multiply">
<path d="M61.0701 755.64L39.5901 743.24L61.0701 730.84L82.5401 743.24L61.0701 755.64ZM41.7401 743.24L61.0701 754.4L80.4001 743.24L61.0701 732.08L41.7401 743.24Z" fill="#75ADD4"/>
</g>
<g style="mix-blend-mode:multiply">
<path d="M61.0701 747.49C59.1201 747.49 57.1801 747.06 55.7001 746.21C54.1601 745.32 53.3201 744.11 53.3201 742.8C53.3201 741.49 54.1701 740.27 55.7001 739.39C58.6601 737.68 63.4801 737.68 66.4401 739.39C67.9801 740.28 68.8201 741.49 68.8301 742.8C68.8301 744.11 67.9801 745.32 66.4501 746.21C64.9701 747.07 63.0201 747.49 61.0801 747.49H61.0701ZM61.0701 739.15C59.3201 739.15 57.5701 739.53 56.2401 740.3C55.0501 740.99 54.3901 741.87 54.3901 742.79C54.3901 743.71 55.0501 744.58 56.2401 745.27C58.9101 746.81 63.2501 746.81 65.9201 745.27C67.1101 744.58 67.7701 743.7 67.7701 742.79C67.7701 741.88 67.1101 740.99 65.9201 740.31C64.5901 739.54 62.8401 739.16 61.0801 739.16L61.0701 739.15Z" fill="#75ADD4"/>
</g>
<g style="mix-blend-mode:multiply">
<path d="M-1.95 299.74L171.11 0H-175L-1.95 299.74Z" fill="#FCEA10"/>
</g>
<g style="mix-blend-mode:multiply">
<path d="M1464.22 989.9L1637.27 1289.64H1291.16L1464.22 989.9Z" fill="#FCEA10"/>
</g>
<g style="mix-blend-mode:multiply">
<g style="mix-blend-mode:multiply">
<path d="M151.27 1521.32C151.15 1521.32 151.03 1521.32 150.92 1521.3C150.3 1521.23 149.73 1520.96 149.29 1520.51C148.89 1520.1 148.59 1519.55 148.45 1518.91C148.32 1518.36 148.29 1517.75 148.37 1517.08L148.39 1516.95L150.45 1509.96C150.47 1509.89 150.51 1509.79 150.56 1509.7C151.07 1508.9 151.69 1508.2 152.35 1507.66C153.05 1507.09 153.79 1506.7 154.49 1506.54L157.63 1505.81C158.96 1505.5 160.02 1505.92 160.68 1507.02C161.04 1507.61 161.25 1508.39 161.31 1509.33C161.36 1510.14 161.3 1511.06 161.11 1512.05C160.43 1515.71 158.19 1519.79 155.2 1520.49L152.06 1521.22C151.79 1521.28 151.52 1521.32 151.26 1521.32H151.27ZM158.44 1506.54C158.25 1506.54 158.04 1506.57 157.81 1506.62L154.67 1507.35C154.09 1507.49 153.46 1507.82 152.87 1508.31C152.28 1508.8 151.72 1509.43 151.26 1510.15L149.18 1517.22C149.12 1517.76 149.14 1518.28 149.25 1518.73C149.36 1519.22 149.58 1519.64 149.87 1519.94C150.18 1520.25 150.56 1520.44 151 1520.49C151.27 1520.52 151.56 1520.5 151.87 1520.43L155.01 1519.7C157.62 1519.09 159.69 1515.23 160.3 1511.91C160.47 1511 160.53 1510.13 160.48 1509.39C160.43 1508.6 160.25 1507.93 159.97 1507.46C159.6 1506.85 159.1 1506.55 158.44 1506.55V1506.54Z" fill="#75ADD4"/>
</g>
<g style="mix-blend-mode:multiply">
<path d="M150.29 1521.13L145.54 1518.69C145.27 1518.42 144.99 1517.67 144.55 1516.02L144.48 1515.75L146.44 1507.67C146.69 1507.06 146.9 1506.76 147.16 1506.46C147.38 1506.2 147.63 1505.95 147.96 1505.65C148.74 1505.06 149.95 1504.55 151.24 1504.24C151.94 1504.07 153.26 1503.84 154.16 1504.14L159.6 1506.14L154.66 1507.37C153.94 1507.6 153.3 1507.96 152.73 1508.45C152.26 1508.86 151.83 1509.36 151.3 1510.13L149.21 1517.16C149.19 1517.44 149.59 1518.54 149.8 1519.13C150.03 1519.77 150.16 1520.15 150.19 1520.35L150.31 1521.14L150.29 1521.13ZM146.09 1518.06L149.07 1519.58C149.05 1519.52 149.03 1519.46 149.01 1519.4C148.61 1518.29 148.35 1517.53 148.37 1517.15C148.37 1517.07 148.39 1516.99 148.41 1516.91L150.46 1509.94C150.49 1509.83 150.55 1509.72 150.62 1509.63C151.17 1508.83 151.66 1508.27 152.17 1507.82C152.82 1507.25 153.56 1506.83 154.42 1506.56L156.78 1505.97L153.87 1504.9C153.37 1504.73 152.47 1504.78 151.42 1505.03C150.26 1505.3 149.13 1505.78 148.48 1506.27C148.21 1506.52 147.98 1506.75 147.78 1506.99C147.6 1507.19 147.43 1507.42 147.22 1507.91L145.33 1515.72L145.35 1515.79C145.79 1517.44 146.01 1517.91 146.1 1518.05L146.09 1518.06Z" fill="#75ADD4"/>
</g>
<g style="mix-blend-mode:multiply">
<path d="M196.73 1477.85C195.67 1477.85 194.68 1477.6 193.81 1477.1C191.71 1475.89 190.55 1473.36 190.55 1470C190.55 1463.24 195.32 1454.98 201.18 1451.59C204.1 1449.91 206.86 1449.65 208.96 1450.86C211.06 1452.07 212.22 1454.6 212.22 1457.96C212.22 1464.73 207.45 1472.98 201.59 1476.37C199.88 1477.36 198.23 1477.85 196.73 1477.85ZM201.59 1452.3C195.96 1455.55 191.38 1463.49 191.38 1469.99C191.38 1473.05 192.39 1475.32 194.23 1476.38C196.07 1477.44 198.54 1477.18 201.19 1475.65C206.82 1472.4 211.4 1464.46 211.4 1457.96C211.4 1454.9 210.39 1452.63 208.55 1451.57C206.72 1450.51 204.24 1450.77 201.59 1452.3Z" fill="#75ADD4"/>
</g>
<g style="mix-blend-mode:multiply">
<path d="M144.81 1516.78C144.54 1516.54 143.33 1515.67 141.92 1514.67C137.68 1511.65 135.6 1510.12 135.28 1509.58C134.17 1507.7 133.56 1505.29 133.12 1500.98L131.48 1472.38L132.3 1472.33L133.94 1500.91C134.37 1505.07 134.94 1507.39 135.99 1509.16C136.3 1509.66 140.12 1512.38 142.39 1514C143.88 1515.06 145.05 1515.9 145.36 1516.17L144.81 1516.78Z" fill="#75ADD4"/>
</g>
<g style="mix-blend-mode:multiply">
<path d="M171.96 1493.61C171.96 1493.61 171.87 1493.59 171.82 1493.58L171.07 1493.43L171.48 1492.9C175.7 1487.45 178.14 1482.54 179.4 1477C180.15 1473.71 180.46 1462.49 180.34 1443.64V1443.11L180.85 1443.23C181.03 1443.27 181.24 1443.3 181.48 1443.32H181.59L181.68 1443.39C181.74 1443.43 181.97 1443.62 182.23 1443.83C182.49 1444.04 182.92 1444.4 183.01 1444.46L182.62 1445.19C182.51 1445.14 182.31 1444.97 181.7 1444.47C181.54 1444.34 181.39 1444.21 181.29 1444.14C181.24 1444.14 181.2 1444.14 181.16 1444.13C181.27 1462.75 180.95 1473.87 180.2 1477.19C178.91 1482.86 176.42 1487.87 172.13 1493.42L172.03 1493.34L171.95 1493.62L171.96 1493.61Z" fill="#75ADD4"/>
</g>
<g style="mix-blend-mode:multiply">
<path d="M176.82 1499.38L174.5 1495.57L174.68 1495.34C178.76 1490.24 181.2 1485.61 182.6 1480.35C183.93 1475.35 183.98 1453.8 184 1446.72V1446.15C184 1445.3 184 1445.01 184 1444.78C183.97 1444.66 183.97 1444.51 183.97 1444.36V1444.12L188.12 1441.72V1441.51H188.95H188.54L188.95 1441.53C188.95 1441.77 188.96 1441.97 188.96 1442.96C188.97 1463.97 188.37 1476.8 187.15 1481.07C185.35 1487.4 182.37 1492.74 177.18 1498.93L176.81 1499.37L176.82 1499.38ZM175.5 1495.63L176.92 1497.97C181.87 1491.99 184.62 1487 186.36 1480.86C187.55 1476.65 188.15 1463.91 188.14 1442.97C188.14 1442.86 188.14 1442.75 188.14 1442.66L184.82 1444.58C184.82 1444.88 184.83 1445.07 184.82 1446.15V1446.72C184.8 1454.58 184.76 1475.46 183.39 1480.56C181.98 1485.86 179.54 1490.52 175.49 1495.63H175.5Z" fill="#75ADD4"/>
</g>
<g style="mix-blend-mode:multiply">
<path d="M182.92 1445.17L178.12 1441.73V1439.5C178.11 1438.27 178.03 1437.17 177.88 1436.13C177.71 1435.01 177.46 1433.91 177.09 1432.77C176.64 1431.55 176.2 1430.65 175.68 1429.85L175.02 1429.02L175.66 1428.5L176.35 1429.36C176.93 1430.25 177.39 1431.2 177.87 1432.48C178.26 1433.7 178.53 1434.84 178.7 1436.01C178.86 1437.08 178.94 1438.22 178.95 1439.49V1441.3L183.41 1444.49L182.93 1445.16L182.92 1445.17Z" fill="#75ADD4"/>
</g>
<g style="mix-blend-mode:multiply">
<path d="M134.26 1474.04C134.06 1474.04 133.87 1473.98 133.71 1473.87L128.58 1470.91C128.28 1470.74 128.1 1470.42 128.1 1470.07V1467.73C128.19 1460.93 129.83 1453.57 132.87 1446.44C135.95 1439.2 140.34 1432.36 145.56 1426.67C145.79 1426.42 151.32 1420.5 156.8 1418.62L157.07 1419.4C151.78 1421.21 146.22 1427.17 146.17 1427.23C141.01 1432.85 136.68 1439.6 133.63 1446.76C130.64 1453.8 129.01 1461.05 128.93 1467.73V1470.06C128.93 1470.06 128.95 1470.15 129 1470.18L134.15 1473.16L134.26 1474.03V1474.04ZM184.48 1419.13L184.13 1418.94H183.73C183.73 1418.94 183.73 1418.97 183.74 1418.97C183.74 1418.97 183.73 1418.95 183.72 1418.94H183.71C183.58 1418.77 183.16 1418.46 182.74 1418.22L178.45 1415.52C176.42 1414.47 174.45 1413.88 172.38 1413.68C170.36 1413.51 166.53 1414.47 164.81 1415.58L164.36 1414.89C166.23 1413.68 170.23 1412.67 172.45 1412.86C174.63 1413.07 176.7 1413.7 178.8 1414.78L178.89 1414.82L183.17 1417.52C184.84 1418.48 184.59 1418.94 184.49 1419.13H184.48ZM183.76 1418.74C183.76 1418.74 183.76 1418.75 183.75 1418.76V1418.74H183.76Z" fill="#75ADD4"/>
</g>
<g style="mix-blend-mode:multiply">
<path d="M200.86 1474.58L196.64 1472.14C195.73 1471.38 195.16 1470.52 194.92 1469.52C194.66 1468.47 194.75 1467.28 194.88 1466.26C195.25 1464.39 195.84 1462.77 196.71 1461.26C197.58 1459.76 198.68 1458.44 200.09 1457.2C200.98 1456.53 201.93 1455.88 202.96 1455.58C203.97 1455.29 204.99 1455.36 206.09 1455.77L210.35 1458.22L209.11 1458.36C207.62 1458.53 206.15 1459.33 204.74 1460.71C203.13 1462.3 201.67 1464.62 200.75 1467.07C200.56 1467.57 200.4 1468.06 200.28 1468.51C200.05 1469.68 199.84 1471.05 200.06 1472.32C200.13 1472.72 200.24 1473.08 200.38 1473.44L200.84 1474.56L200.86 1474.58ZM197.14 1471.49L199.31 1472.74C199.29 1472.66 199.28 1472.57 199.26 1472.49C199.02 1471.08 199.23 1469.63 199.48 1468.39C199.62 1467.85 199.79 1467.34 199.99 1466.81C200.95 1464.24 202.48 1461.81 204.18 1460.15C205.38 1458.96 206.64 1458.18 207.93 1457.79L205.75 1456.53C204.86 1456.21 204.04 1456.15 203.21 1456.39C202.29 1456.66 201.42 1457.26 200.61 1457.86C199.29 1459.02 198.24 1460.27 197.44 1461.66C196.61 1463.11 196.04 1464.65 195.7 1466.4C195.59 1467.32 195.5 1468.41 195.73 1469.33C195.93 1470.15 196.38 1470.84 197.15 1471.49H197.14Z" fill="#75ADD4"/>
</g>
<g style="mix-blend-mode:multiply">
<path d="M203.79 1476.34C202.99 1476.34 202.23 1476.15 201.57 1475.77C200.11 1474.93 199.27 1473.22 199.27 1471.08C199.27 1466.63 202.73 1460.73 206.68 1458.45C208.49 1457.4 210.27 1457.28 211.69 1458.1C213.23 1458.99 214.12 1460.87 214.12 1463.25C214.12 1467.7 210.98 1473.14 207.13 1475.36C206 1476.01 204.86 1476.34 203.8 1476.34H203.79ZM209.65 1458.39C208.85 1458.39 207.98 1458.65 207.09 1459.16C203.43 1461.27 200.1 1466.95 200.1 1471.08C200.1 1472.94 200.77 1474.35 201.99 1475.05C203.27 1475.79 204.99 1475.64 206.71 1474.64C210.34 1472.55 213.29 1467.43 213.29 1463.24C213.29 1461.16 212.55 1459.54 211.27 1458.81C210.78 1458.53 210.24 1458.39 209.65 1458.39Z" fill="#75ADD4"/>
</g>
<g style="mix-blend-mode:multiply">
<path d="M168.22 1511.06L167.67 1510.78C164.35 1509.08 158.8 1506.23 161.24 1499.87L161.31 1499.71C161.86 1498.44 163.47 1496.4 165.13 1494.85C166.45 1493.62 168.96 1491.66 170.85 1492.39C171.71 1492.75 172.78 1493.57 173.81 1494.37C174.57 1494.96 175.3 1495.51 175.88 1495.85L175.47 1496.57C174.84 1496.21 174.09 1495.63 173.31 1495.03C172.32 1494.26 171.29 1493.47 170.54 1493.16C169.47 1492.75 167.69 1493.59 165.68 1495.46C163.9 1497.12 162.49 1499.06 162.06 1500.04L162 1500.18C159.83 1505.84 164.58 1508.27 168.05 1510.05L168.6 1510.33L168.22 1511.06Z" fill="#75ADD4"/>
</g>
<g style="mix-blend-mode:multiply">
<path d="M169.52 1511.32C168.79 1511.32 168.12 1511.02 167.56 1510.41C165.52 1508.2 165.73 1502.82 168.87 1499.93L172 1497.04C173.28 1495.87 174.68 1495.42 175.76 1495.86L175.91 1495.92L178.07 1500.78C178.34 1502.8 177.23 1505.47 175.43 1507.13L172.29 1510.02C171.35 1510.89 170.39 1511.33 169.51 1511.33L169.52 1511.32ZM174.9 1496.52C174.21 1496.52 173.36 1496.92 172.57 1497.65L169.44 1500.54C166.5 1503.25 166.57 1508.11 168.18 1509.86C169.09 1510.85 170.36 1510.69 171.75 1509.41L174.89 1506.52C176.47 1505.07 177.49 1502.68 177.28 1500.94L175.32 1496.56C175.19 1496.52 175.05 1496.51 174.91 1496.51L174.9 1496.52Z" fill="#75ADD4"/>
</g>
<g style="mix-blend-mode:multiply">
<path d="M159.04 1422.88L156.79 1421.23L156.62 1420.81V1420.73C156.63 1417.88 157.08 1414.81 157.35 1413.24C157.75 1411.48 158.37 1409.66 159.2 1407.81C161.84 1401.9 166.24 1396.29 171.28 1392.42C176.56 1388.37 182.01 1386.87 187.48 1387.96L191.44 1388.75L187.4 1388.77C187.1 1388.77 186.82 1388.77 186.53 1388.77C185.13 1388.75 183.93 1388.74 182.18 1389.27L181.97 1388.57C178.54 1389 175.13 1390.5 171.78 1393.07C166.85 1396.86 162.54 1402.35 159.95 1408.14C159.15 1409.94 158.55 1411.7 158.16 1413.39C157.91 1414.9 157.47 1417.88 157.45 1420.65L157.47 1420.7L159.53 1422.21L159.04 1422.88Z" fill="#75ADD4"/>
</g>
<g style="mix-blend-mode:multiply">
<path d="M201.05 1459.7C200.91 1459.7 200.78 1459.66 200.65 1459.59L198.5 1458.35L198.46 1431.32C198.41 1425.99 198.19 1421.69 197.76 1417.38C197.27 1413.43 196.71 1410.42 195.87 1407.33C194.87 1404.09 193.91 1401.68 191.94 1398.96L190.32 1396.94C190.23 1396.86 189.88 1396.52 190.18 1396.21C190.74 1395.62 193.85 1398.47 193.88 1398.5C196.08 1400.88 197.13 1402.94 198.31 1405.91C199.29 1408.71 199.95 1411.33 200.58 1414.95C201.37 1420.26 201.73 1425.59 201.81 1432.77L201.85 1458.9C201.85 1459.19 201.7 1459.45 201.45 1459.59C201.33 1459.66 201.19 1459.7 201.05 1459.7ZM199.33 1457.87L201.04 1458.86L200.99 1432.78C200.92 1425.64 200.56 1420.35 199.78 1415.09C199.15 1411.52 198.51 1408.94 197.55 1406.2C196.41 1403.33 195.4 1401.34 193.3 1399.08C193.14 1398.93 192.91 1398.74 192.65 1398.53C194.66 1401.33 195.65 1403.8 196.67 1407.11C197.52 1410.26 198.09 1413.3 198.59 1417.3C199.03 1421.64 199.25 1425.96 199.3 1431.33L199.34 1457.89L199.33 1457.87Z" fill="#75ADD4"/>
</g>
<g style="mix-blend-mode:multiply">
<path d="M201.65 1459.58C201.56 1459.58 201.48 1459.56 201.39 1459.53C201.16 1459.43 201.02 1459.21 201.02 1458.95L200.98 1432.78C200.93 1409.14 196.4 1397.35 186.72 1395.69C182.52 1394.97 175.65 1398.13 171.09 1402.88C167.39 1406.74 164.99 1411.7 164.98 1415.53L165.26 1419.83L159.26 1423.13L158.92 1418.59C158.93 1411.94 162.62 1403.99 168.55 1397.81C174.9 1391.19 183.81 1387.13 189.73 1388.15C201.5 1390.18 207.01 1403.4 207.06 1429.76L207.11 1457.25H206.7C205.84 1457.25 204.86 1457.55 203.88 1458.12C203.28 1458.47 202.68 1458.9 202.11 1459.43C201.99 1459.54 201.84 1459.6 201.68 1459.6L201.65 1459.58ZM185.49 1394.76C185.97 1394.76 186.43 1394.8 186.86 1394.87C193.25 1395.97 201.74 1401.1 201.8 1432.78L201.84 1458.52C202.36 1458.08 202.9 1457.7 203.44 1457.39C204.42 1456.82 205.37 1456.5 206.27 1456.43L206.23 1429.75C206.2 1413.46 204.44 1391.51 189.58 1388.95C184 1387.98 175.21 1392.04 169.13 1398.37C163.34 1404.4 159.74 1412.13 159.73 1418.55L159.98 1421.78L164.4 1419.35L164.16 1415.55C164.16 1411.44 166.6 1406.37 170.5 1402.31C174.77 1397.86 181.04 1394.77 185.49 1394.77V1394.76Z" fill="#75ADD4"/>
</g>
<g style="mix-blend-mode:multiply">
<path d="M148.82 1518.66L148.39 1518.49C143.87 1516.7 139.5 1512.65 137.77 1508.66C136.01 1504.63 134.88 1485.76 134.87 1477.23C134.87 1476.62 134.86 1475.51 134.84 1474.53C134.83 1473.6 134.82 1472.78 134.82 1472.58V1472.35L135.03 1472.23C136.39 1471.46 139.02 1469.95 139.27 1469.8L139.9 1469.4V1470.15C139.9 1470.33 139.9 1471.08 139.9 1471.57V1471.86C139.93 1479.33 140.6 1500.48 141.92 1503.82C143.18 1507 146.36 1510.66 150.39 1511.16L150.86 1511.22L148.82 1518.65V1518.66ZM135.65 1472.84C135.65 1473.19 135.66 1473.83 135.67 1474.53C135.68 1475.52 135.7 1476.63 135.7 1477.24C135.7 1485.7 136.82 1504.4 138.53 1508.34C140.13 1512.02 144.1 1515.76 148.27 1517.55L149.82 1511.92C145.67 1511.17 142.5 1507.52 141.16 1504.13C139.69 1500.4 139.11 1477.65 139.08 1471.87V1471.58C139.08 1471.37 139.08 1471.11 139.08 1470.87C138.09 1471.44 136.27 1472.48 135.65 1472.83V1472.84Z" fill="#75ADD4"/>
</g>
<g style="mix-blend-mode:multiply">
<path d="M134.11 1473.91L133.85 1470.78C133.85 1466.33 134.59 1461.58 136.06 1456.63C140.22 1442.63 149.52 1429.36 160.33 1421.99C169.98 1416.42 178.54 1415.24 184.45 1418.65C189.72 1421.69 192.51 1428.17 192.51 1437.38V1439.9L182.75 1445.54V1442.54C182.75 1441.72 182.71 1440.92 182.64 1440.16C182.44 1438.12 181.98 1436.3 181.28 1434.75C180.01 1431.94 177.96 1430.02 175.35 1429.18C171.96 1428.09 167.72 1428.87 163.39 1431.36C155.35 1436 148.18 1445.69 145.11 1456.03C144.12 1459.36 143.62 1462.59 143.62 1465.62V1468.14L141.56 1469.33L136.47 1472.7L134.11 1473.91ZM134.67 1470.77L134.83 1472.62L136.05 1471.99L141.12 1468.63L142.79 1467.67V1465.63C142.79 1462.52 143.3 1459.22 144.32 1455.81C147.45 1445.28 154.77 1435.4 162.98 1430.66C167.51 1428.04 171.99 1427.24 175.61 1428.4C178.45 1429.31 180.67 1431.4 182.04 1434.42C182.78 1436.05 183.26 1437.96 183.47 1440.09C183.55 1440.88 183.58 1441.71 183.58 1442.55V1444.12L191.69 1439.43V1437.39C191.69 1428.49 189.05 1422.26 184.04 1419.37C178.39 1416.11 170.13 1417.29 160.77 1422.69C150.14 1429.94 140.96 1443.04 136.85 1456.87C135.41 1461.73 134.68 1466.4 134.67 1470.76V1470.77Z" fill="#75ADD4"/>
</g>
</g>
<g style="mix-blend-mode:multiply">
<path d="M1325.18 1515.35L1304.71 1503.54L1305.52 1499.69C1307.78 1490.34 1312.45 1481.56 1318.68 1474.95C1323.95 1469.37 1335.3 1461.07 1344.41 1465.37L1360.45 1475.07L1360.99 1476.91L1359.99 1476.77C1350.07 1475.39 1339.8 1485.25 1335.29 1491.29C1330.35 1497.93 1327.37 1504.86 1325.35 1514.48L1325.17 1515.36L1325.18 1515.35ZM1306.18 1502.88L1324.28 1513.33C1326.34 1503.96 1329.35 1497.1 1334.26 1490.5C1338.63 1484.64 1348.28 1475.32 1358.1 1475.32C1358.2 1475.32 1358.3 1475.32 1358.4 1475.32L1343.81 1466.49C1335.42 1462.53 1324.66 1470.49 1319.63 1475.82C1313.55 1482.27 1308.99 1490.84 1306.79 1499.96L1306.18 1502.87V1502.88Z" fill="#E83A8D"/>
</g>
<g style="mix-blend-mode:multiply">
<path d="M1290.26 1567.88L1270.97 1556.74C1262.2 1551.62 1258.28 1545.57 1258.24 1537.11C1258.19 1525.45 1263.11 1512.76 1271.39 1503.17C1276.6 1497.13 1287.92 1487.82 1297.32 1491.21C1298.78 1491.73 1307.36 1496.73 1315.3 1501.37C1316.66 1502.16 1317.73 1502.79 1318.31 1503.13L1317.72 1504.28L1316.12 1503.55C1311.27 1501.81 1305.59 1504.33 1303.37 1505.49C1291.5 1511.75 1281.37 1527.09 1279.28 1541.98C1277.59 1554.05 1280.74 1560.77 1290.92 1566.77L1290.27 1567.89L1290.26 1567.88ZM1293.03 1491.78C1285.18 1491.78 1276.66 1499.06 1272.38 1504.02C1264.3 1513.39 1259.5 1525.76 1259.55 1537.11C1259.58 1545.06 1263.31 1550.77 1271.63 1555.62L1282.67 1562C1278.02 1556.93 1276.73 1550.76 1277.99 1541.79C1280.13 1526.53 1290.55 1510.77 1302.76 1504.34C1305.08 1503.12 1309.09 1501.43 1313.25 1501.67C1307.63 1498.39 1298.23 1492.92 1296.89 1492.43C1295.64 1491.98 1294.35 1491.78 1293.04 1491.78H1293.03Z" fill="#E83A8D"/>
</g>
<g style="mix-blend-mode:multiply">
<path d="M1324.99 1578.49L1324.54 1578.35C1321.89 1577.56 1318.67 1576.82 1315.26 1576.04C1299.34 1572.4 1277.53 1567.41 1277.53 1548.25C1277.53 1537.4 1281.46 1526.26 1288.59 1516.89C1295.08 1508.36 1303.22 1502.71 1310.36 1501.78C1317.2 1500.88 1322.2 1504.35 1324.63 1511.57C1329.71 1489.29 1347.03 1474.18 1359.65 1475.41C1367.45 1476.18 1371.93 1483.14 1371.93 1494.51C1371.93 1513.37 1350.34 1543.23 1334.58 1565.03C1331.16 1569.76 1327.93 1574.22 1325.27 1578.1L1325 1578.49H1324.99ZM1312.36 1502.94C1311.77 1502.94 1311.16 1502.98 1310.53 1503.06C1296.26 1504.93 1278.83 1526.15 1278.83 1548.24C1278.83 1566.37 1300.05 1571.22 1315.55 1574.77C1318.79 1575.51 1321.86 1576.21 1324.46 1576.97C1327.08 1573.17 1330.21 1568.84 1333.52 1564.26C1349.18 1542.6 1370.62 1512.93 1370.62 1494.5C1370.62 1483.72 1366.68 1477.4 1359.51 1476.69C1347.17 1475.48 1330.02 1490.92 1325.56 1513.39C1325.48 1513.8 1325.14 1514.09 1324.73 1514.11C1324.33 1514.18 1323.95 1513.85 1323.84 1513.45C1322.02 1506.61 1317.97 1502.94 1312.36 1502.94Z" fill="#E83A8D"/>
</g>
</g>
<defs>
<clipPath id="clip0_183_769">
<rect width="1812.27" height="1578.49" fill="white" transform="translate(-175)"/>
</clipPath>
</defs>
</svg>
