<svg width="28" height="27" viewBox="0 0 28 27" fill="none" xmlns="http://www.w3.org/2000/svg">
<path d="M14 8.78994C11.5813 8.78994 9.63125 10.7587 9.63125 13.1587C9.63125 15.5587 11.6 17.5274 14 17.5274C16.4 17.5274 18.3687 15.5587 18.3687 13.1587C18.3687 10.7587 16.4 8.78994 14 8.78994ZM27.125 13.1587C27.125 11.3399 27.125 9.55869 27.0312 7.73994C26.9375 5.63994 26.45 3.76494 24.9125 2.24619C23.375 0.708692 21.5188 0.221191 19.4188 0.127441C17.6 0.0336913 15.8188 0.0336914 14 0.0336914C12.1812 0.0336914 10.4 0.0336913 8.58125 0.127441C6.48125 0.221191 4.60625 0.708692 3.0875 2.24619C1.55 3.78369 1.0625 5.63994 0.96875 7.73994C0.875 9.55869 0.875 11.3399 0.875 13.1587C0.875 14.9774 0.875 16.7587 0.96875 18.5774C1.0625 20.6774 1.55 22.5524 3.0875 24.0712C4.625 25.6087 6.48125 26.0962 8.58125 26.1899C10.4 26.2837 12.1812 26.2837 14 26.2837C15.8188 26.2837 17.6 26.2837 19.4188 26.1899C21.5188 26.0962 23.3937 25.6087 24.9125 24.0712C26.45 22.5337 26.9375 20.6774 27.0312 18.5774C27.1437 16.7774 27.125 14.9774 27.125 13.1587ZM14 19.8899C10.2688 19.8899 7.26875 16.8899 7.26875 13.1587C7.26875 9.42744 10.2688 6.42744 14 6.42744C17.7313 6.42744 20.7313 9.42744 20.7313 13.1587C20.7313 16.8899 17.7313 19.8899 14 19.8899ZM21.0125 7.72119C20.15 7.72119 19.4375 7.02744 19.4375 6.14619C19.4375 5.26494 20.1313 4.57119 21.0125 4.57119C21.8937 4.57119 22.5875 5.26494 22.5875 6.14619C22.5922 6.35157 22.5548 6.55574 22.4773 6.74603C22.3999 6.93633 22.2843 7.10869 22.1375 7.25244C21.9937 7.39921 21.8214 7.51488 21.6311 7.59228C21.4408 7.66969 21.2366 7.70719 21.0312 7.70244L21.0125 7.72119Z" fill="#2D5AA6"/>
</svg>
