<svg width="28" height="22" viewBox="0 0 28 22" fill="none" xmlns="http://www.w3.org/2000/svg">
<path d="M27.075 2.65869C26.1125 3.09619 25.075 3.38369 24 3.52119C25.1 2.85869 25.95 1.80869 26.35 0.546191C25.3125 1.17119 24.1625 1.60869 22.95 1.85869C21.9625 0.783692 20.575 0.158691 19 0.158691C16.0625 0.158691 13.6625 2.55869 13.6625 5.52119C13.6625 5.94619 13.7125 6.35869 13.8 6.74619C9.35005 6.52119 5.38755 4.38369 2.75005 1.14619C2.28755 1.93369 2.02505 2.85869 2.02505 3.83369C2.02505 5.69619 2.96255 7.34619 4.41255 8.28369C3.52505 8.28369 2.70005 8.03369 1.97505 7.65869V7.69619C1.97505 10.2962 3.82505 12.4712 6.27505 12.9587C5.4886 13.1749 4.6626 13.2048 3.86255 13.0462C4.20206 14.1118 4.86697 15.0442 5.76382 15.7124C6.66067 16.3805 7.74436 16.7508 8.86255 16.7712C6.96713 18.2718 4.61756 19.0829 2.20005 19.0712C1.77505 19.0712 1.35005 19.0462 0.925049 18.9962C3.30005 20.5212 6.12505 21.4087 9.15005 21.4087C19 21.4087 24.4125 13.2337 24.4125 6.14619C24.4125 5.90869 24.4125 5.68369 24.4 5.44619C25.45 4.69619 26.35 3.74619 27.075 2.65869Z" fill="#2D5AA6"/>
</svg>
