<svg width="30" height="31" viewBox="0 0 30 31" fill="none" xmlns="http://www.w3.org/2000/svg">
<path fill-rule="evenodd" clip-rule="evenodd" d="M10.8193 0.75006C7.92008 1.59461 5.34267 3.29339 3.42337 5.62476C1.50407 7.95613 0.331995 10.8118 0.0600586 13.8193H6.9172C7.31691 9.24273 8.64384 4.79534 10.8172 0.747917L10.8193 0.75006ZM6.9172 16.4979H0.0600586C0.331429 19.5055 1.503 22.3615 3.42193 24.6933C5.34085 27.025 7.91802 28.7243 10.8172 29.5693C8.64384 25.5219 7.31691 21.0745 6.9172 16.4979ZM14.2543 30.1415C11.6563 26.021 10.0634 21.3474 9.60434 16.4979H20.3936C19.9345 21.3474 18.3417 26.021 15.7436 30.1415C15.2475 30.1661 14.7505 30.1661 14.2543 30.1415ZM19.1829 29.5672C22.0818 28.7223 24.6587 27.0233 26.5776 24.692C28.4965 22.3607 29.6683 19.5051 29.9401 16.4979H23.0829C22.6832 21.0745 21.3563 25.5219 19.1829 29.5693V29.5672ZM23.0829 13.8193H29.9401C29.6687 10.8117 28.4971 7.95574 26.5782 5.62398C24.6593 3.29222 22.0821 1.59297 19.1829 0.747917C21.3563 4.79534 22.6832 9.24273 23.0829 13.8193ZM14.2543 0.175774C14.7512 0.151044 15.2489 0.151044 15.7458 0.175774C18.3431 4.29645 19.9352 8.97005 20.3936 13.8193H9.60649C10.0715 8.94006 11.6679 4.2622 14.2543 0.175774Z" fill="#2D5AA6"/>
</svg>
