<svg width="1440" height="1579" fill="none" xmlns="http://www.w3.org/2000/svg"><g clip-path="url(#clip0_183_769)"><g style="mix-blend-mode:multiply" fill="#75ADD4"><path d="M1195.12 82.48c-4.64 0-8.42-2.52-8.42-5.63s3.78-5.63 8.42-5.63c4.64 0 8.42 2.52 8.42 5.63s-3.78 5.63-8.42 5.63zm0-10.18c-4.05 0-7.35 2.04-7.35 4.55s3.3 4.55 7.35 4.55 7.35-2.04 7.35-4.55-3.3-4.55-7.35-4.55z"/><path d="M1193.87 90.79c-10.1 0-18.32-5.39-18.32-12.01s8.22-12.01 18.32-12.01 18.32 5.39 18.32 12.01-8.22 12.01-18.32 12.01zm0-22.95c-9.51 0-17.24 4.91-17.24 10.94 0 6.03 7.74 10.94 17.24 10.94 9.5 0 17.25-4.91 17.25-10.94 0-6.03-7.74-10.94-17.25-10.94zm23.48.29c-4.64 0-8.42-2.52-8.42-5.63s3.78-5.63 8.42-5.63c4.64 0 8.42 2.52 8.42 5.63s-3.78 5.63-8.42 5.63zm0-10.18c-4.05 0-7.35 2.04-7.35 4.55s3.3 4.55 7.35 4.55 7.35-2.04 7.35-4.55-3.3-4.55-7.35-4.55z"/><path d="M1216.1 76.45c-10.1 0-18.32-5.39-18.32-12.01s8.22-12.01 18.32-12.01 18.32 5.39 18.32 12.01-8.22 12.01-18.32 12.01zm0-22.95c-9.51 0-17.24 4.91-17.24 10.94 0 6.03 7.74 10.94 17.24 10.94 9.5 0 17.25-4.91 17.25-10.94 0-6.03-7.74-10.94-17.25-10.94zm1.59 43.1c-4.64 0-8.42-2.52-8.42-5.63s3.78-5.63 8.42-5.63c4.64 0 8.42 2.52 8.42 5.63s-3.78 5.63-8.42 5.63zm0-10.18c-4.05 0-7.35 2.04-7.35 4.55s3.3 4.55 7.35 4.55 7.35-2.04 7.35-4.55-3.3-4.55-7.35-4.55z"/><path d="M1216.44 104.92c-10.1 0-18.32-5.39-18.32-12.01s8.22-12.01 18.32-12.01 18.32 5.39 18.32 12.01-8.22 12.01-18.32 12.01zm0-22.95c-9.51 0-17.24 4.91-17.24 10.94 0 6.03 7.74 10.94 17.24 10.94 9.5 0 17.25-4.91 17.25-10.94 0-6.03-7.74-10.94-17.25-10.94zm23.48.29c-4.64 0-8.42-2.52-8.42-5.63s3.78-5.63 8.42-5.63c4.64 0 8.42 2.52 8.42 5.63s-3.78 5.63-8.42 5.63zm0-10.19c-4.05 0-7.35 2.04-7.35 4.55s3.3 4.55 7.35 4.55 7.35-2.04 7.35-4.55-3.3-4.55-7.35-4.55z"/><path d="M1238.67 90.57c-10.1 0-18.32-5.39-18.32-12.01s8.22-12.01 18.32-12.01 18.32 5.39 18.32 12.01-8.22 12.01-18.32 12.01zm0-22.95c-9.51 0-17.25 4.91-17.25 10.94 0 6.03 7.74 10.94 17.25 10.94s17.24-4.91 17.24-10.94c0-6.03-7.74-10.94-17.24-10.94zm-75.01 8.24c-4.65 0-8.43-2.52-8.43-5.63s3.78-5.63 8.43-5.63 8.42 2.52 8.42 5.63-3.78 5.63-8.42 5.63zm0-10.19c-4.05 0-7.35 2.04-7.35 4.55s3.3 4.55 7.35 4.55 7.35-2.04 7.35-4.55-3.3-4.55-7.35-4.55z"/><path d="M1162.41 84.17c-10.1 0-18.32-5.39-18.32-12.01s8.22-12.01 18.32-12.01 18.32 5.39 18.32 12.01-8.22 12.01-18.32 12.01zm0-22.95c-9.51 0-17.25 4.91-17.25 10.94 0 6.03 7.74 10.94 17.25 10.94s17.25-4.91 17.25-10.94c0-6.03-7.74-10.94-17.25-10.94zm23.48.29c-4.64 0-8.42-2.52-8.42-5.63s3.78-5.63 8.42-5.63c4.64 0 8.42 2.52 8.42 5.63s-3.78 5.63-8.42 5.63zm0-10.18c-4.05 0-7.35 2.04-7.35 4.55s3.3 4.55 7.35 4.55 7.35-2.04 7.35-4.55-3.3-4.55-7.35-4.55z"/><path d="M1184.64 69.82c-10.1 0-18.32-5.39-18.32-12.01s8.22-12.01 18.32-12.01 18.32 5.39 18.32 12.01-8.22 12.01-18.32 12.01zm0-22.94c-9.51 0-17.24 4.91-17.24 10.94 0 6.03 7.74 10.94 17.24 10.94 9.5 0 17.25-4.91 17.25-10.94 0-6.03-7.74-10.94-17.25-10.94zm-19.61 68.26c-4.64 0-8.42-2.52-8.42-5.63s3.78-5.63 8.42-5.63c4.64 0 8.42 2.52 8.42 5.63s-3.78 5.63-8.42 5.63zm0-10.18c-4.05 0-7.35 2.04-7.35 4.55s3.3 4.55 7.35 4.55 7.35-2.04 7.35-4.55-3.3-4.55-7.35-4.55z"/><path d="M1163.77 123.46c-10.1 0-18.32-5.39-18.32-12.01s8.22-12.01 18.32-12.01 18.32 5.39 18.32 12.01-8.22 12.01-18.32 12.01zm0-22.95c-9.51 0-17.25 4.91-17.25 10.94 0 6.03 7.74 10.94 17.25 10.94s17.25-4.91 17.25-10.94c0-6.03-7.74-10.94-17.25-10.94zm23.49.28c-4.64 0-8.42-2.52-8.42-5.63s3.78-5.63 8.42-5.63c4.64 0 8.42 2.52 8.42 5.63s-3.78 5.63-8.42 5.63zm0-10.18c-4.05 0-7.35 2.04-7.35 4.55s3.3 4.55 7.35 4.55 7.35-2.04 7.35-4.55-3.3-4.55-7.35-4.55z"/><path d="M1186 109.11c-10.1 0-18.32-5.39-18.32-12.01s8.22-12.01 18.32-12.01 18.32 5.39 18.32 12.01-8.22 12.01-18.32 12.01zm0-22.95c-9.51 0-17.24 4.91-17.24 10.94 0 6.03 7.74 10.94 17.24 10.94 9.5 0 17.25-4.91 17.25-10.94 0-6.03-7.74-10.94-17.25-10.94z"/><path d="M1203.33 117.35c-4.64 0-8.42-2.52-8.42-5.63s3.78-5.63 8.42-5.63c4.64 0 8.43 2.52 8.43 5.63s-3.78 5.63-8.43 5.63zm0-10.18c-4.05 0-7.35 2.04-7.35 4.55s3.3 4.55 7.35 4.55 7.35-2.04 7.35-4.55-3.3-4.55-7.35-4.55z"/><path d="M1202.08 125.66c-10.1 0-18.32-5.39-18.32-12.01s8.22-12.01 18.32-12.01 18.32 5.39 18.32 12.01-8.22 12.01-18.32 12.01zm0-22.95c-9.51 0-17.25 4.91-17.25 10.94 0 6.03 7.74 10.94 17.25 10.94s17.24-4.91 17.24-10.94c0-6.03-7.74-10.94-17.24-10.94zm-46.97-7.65c-4.64 0-8.42-2.52-8.42-5.63s3.78-5.63 8.42-5.63c4.64 0 8.42 2.52 8.42 5.63s-3.78 5.63-8.42 5.63zm0-10.18c-4.05 0-7.35 2.04-7.35 4.55s3.3 4.55 7.35 4.55 7.35-2.04 7.35-4.55-3.3-4.55-7.35-4.55z"/><path d="M1153.86 103.37c-10.1 0-18.32-5.39-18.32-12.01s8.22-12.01 18.32-12.01 18.32 5.39 18.32 12.01-8.22 12.01-18.32 12.01zm0-22.95c-9.51 0-17.25 4.91-17.25 10.94 0 6.03 7.74 10.94 17.25 10.94s17.24-4.91 17.24-10.94c0-6.03-7.74-10.94-17.24-10.94z"/><path d="M1195.28 134.03c-21.83 0-42.33-4.9-57.75-13.81-15.79-9.09-24.49-21.34-24.49-34.5s8-24.4 22.53-33.34c.64-.4 1.3-.79 1.97-1.18 23.47-13.56 58.4-17.58 88.97-10.25 9.9 2.38 18.82 5.83 26.49 10.26 13.59 7.8 22.15 18.29 24.11 29.55.28 1.67.42 3.34.42 4.96 0 13.15-8.71 25.41-24.53 34.51-15.4 8.9-35.9 13.81-57.72 13.81v-.01zm-.04-95.63c-21.01 0-41.62 4.75-57.16 13.73-.67.38-1.31.77-1.94 1.16-14.2 8.74-22.02 20.26-22.02 32.43 0 12.17 8.51 24.69 23.96 33.58 15.25 8.81 35.57 13.67 57.21 13.67s41.95-4.85 57.18-13.66c15.47-8.9 23.99-20.82 23.99-33.58 0-1.57-.14-3.17-.4-4.78-1.9-10.94-10.28-21.17-23.59-28.8-7.58-4.38-16.4-7.79-26.2-10.15-10.06-2.41-20.6-3.58-31.03-3.58v-.02z"/><path d="M1195.28 161.2c-21.83 0-42.33-4.9-57.75-13.8-15.79-9.14-24.49-21.4-24.49-34.51V85.72h1.07v27.17c0 12.71 8.51 24.64 23.96 33.58 15.25 8.81 35.57 13.66 57.21 13.66s41.95-4.85 57.19-13.66c15.47-8.94 23.99-20.86 23.99-33.58V85.72h1.07v27.17c0 13.12-8.71 25.38-24.52 34.51-15.4 8.9-35.9 13.8-57.72 13.8h-.01z"/></g><g style="mix-blend-mode:multiply" fill="#E83A8D"><path d="M442.34 945.975c-1.76-.05-3.11-.25-4.83-1.15l-80.35-46.39c-1.03-.66-2.02-1.43-2.15-3.06v-6.22l1.07-.04c.09 1.06.6 1.56 1.64 2.23l80.31 46.37c1.52.79 2.73.97 4.32 1.02 1.55-.04 2.77-.22 4.31-1.03l60.43-34.89c1.03-.65 1.54-1.16 1.62-2.22l1.07.04v6.18c-.14 1.68-1.13 2.45-2.14 3.09l-60.47 34.92c-1.74.9-3.13 1.11-4.82 1.16l-.01-.01zm-86.27-54.53v3.89c.08 1.01.6 1.52 1.64 2.19l80.31 46.36c1.52.79 2.74.98 4.32 1.02 1.55-.04 2.77-.23 4.31-1.03l60.43-34.89c1-.64 1.54-1.17 1.62-2.22v-3.85c-.33.31-.7.56-1.07.8l-60.47 34.92c-1.74.91-3.13 1.12-4.82 1.16-1.77-.05-3.11-.25-4.83-1.15l-80.35-46.39c-.38-.24-.75-.5-1.08-.81h-.01z"/><path d="M442.32 939.785c-1.75 0-3.5-.39-4.84-1.15l.54-.93c2.37 1.37 6.23 1.37 8.6 0l60.45-34.9c1.04-.6 1.62-1.37 1.62-2.17 0-.8-.58-1.57-1.62-2.18l-80.33-46.38c-2.33-1.35-6.27-1.35-8.6 0l-60.45 34.9c-1.05.6-1.62 1.38-1.62 2.18 0 .8.58 1.57 1.62 2.17l-.53.93c-1.39-.8-2.16-1.9-2.16-3.1 0-1.2.77-2.3 2.16-3.1l60.45-34.9c2.67-1.54 7.01-1.54 9.68 0l80.33 46.38c1.39.8 2.16 1.91 2.16 3.11s-.77 2.3-2.16 3.1l-60.45 34.9c-1.33.77-3.09 1.15-4.84 1.15l-.01-.01z"/><path d="M444.4 933.965l-.27-.15-77.29-44.62 56.09-32.38.27.15 77.29 44.62-56.09 32.38zm-75.41-44.77l75.41 43.54 53.94-31.14-75.41-43.54-53.94 31.14z"/><path d="M387.74 878.365l-14.01-8.09 27.25-15.74 14.01 8.09-27.26 15.74h.01zm-11.87-8.09l11.87 6.85 25.11-14.5-11.87-6.85-25.11 14.5z"/><path d="M387.2 882.985v-5.55l27.26-15.73v5.55l-27.26 15.74v-.01zm1.08-4.93v3.08l25.11-14.5v-3.08l-25.11 14.5z"/><path d="M388.28 882.985l-4.25-2.46v-.64l-7.03-4.06-2.73 1.58v-8.06l14.01 8.09v5.55zm-3.18-3.07l2.11 1.22v-3.08l-11.87-6.85v4.35l1.65-.96 8.1 4.68v.64h.01zm73.8 36.37l-24.75-14.29 26.15-15.1 24.75 14.29-26.15 15.1zm-22.61-14.28l22.61 13.05 24.01-13.86-22.61-13.05-24.01 13.86z"/><path d="M475.76 903.545c-.56 0-1.12-.13-1.55-.38-.51-.3-.8-.74-.8-1.21s.29-.91.8-1.21c.87-.5 2.24-.5 3.11 0 .51.29.8.73.8 1.21s-.29.91-.8 1.21c-.44.25-1 .38-1.56.38zm-1.02-1.87c-.18.11-.26.22-.26.28 0 .06.08.18.26.28.54.31 1.5.31 2.04 0 .18-.11.26-.22.26-.28 0-.06-.08-.17-.26-.28-.54-.31-1.5-.32-2.04 0z"/><path d="M475.76 904.205c-.67 0-1.32-.16-1.83-.44-.43-.25-.74-.54-.93-.87a1.85 1.85 0 01-.26-.94c0-.33.09-.64.26-.94.19-.34.49-.63.88-.85l.13-.07c1.03-.53 2.63-.51 3.64.07l.61.35-.07.07.05.05.07-.04-.04.07c.1.11.19.23.26.35.17.29.25.61.25.94 0 .33-.09.64-.26.94l-.19.27c-.18.22-.41.42-.68.58l-.14.07c-.5.26-1.12.4-1.75.4v-.01zm-1.85-1.88s.01.02.02.03c.1.17.26.33.48.45.79.43 1.99.41 2.7 0l.05-.03c.19-.12.34-.27.43-.42l.05-.08c.05-.1.07-.21.07-.32 0-.08-.01-.16-.04-.24l-.29.51c-.08.14-.21.26-.39.37-.64.37-1.76.37-2.4.03a1.43 1.43 0 01-.34-.26l-.05-.03h-.28l-.01-.01zm.42-1.17c-.18.12-.32.25-.4.4-.03.06-.05.11-.07.16l.68-.39c.6-.35 1.65-.37 2.31-.07h.02l.11.06.26-.14s-.08-.05-.12-.07l-.11-.06c-.73-.36-1.93-.33-2.59.06l-.08.05h-.01zm-7.86 2.68c-.56 0-1.11-.12-1.55-.37-.51-.3-.8-.74-.8-1.21s.29-.91.8-1.21c.87-.5 2.24-.5 3.11 0 .51.29.8.73.8 1.2s-.29.91-.8 1.21c-.44.25-1 .38-1.56.38zm0-2.09c-.37 0-.75.08-1.02.24-.18.1-.26.22-.26.28 0 .06.08.18.26.28.54.31 1.49.31 2.04 0 .18-.11.27-.22.27-.28 0-.06-.08-.17-.26-.28-.27-.16-.65-.24-1.02-.24h-.01z"/><path d="M466.47 904.505c-.67 0-1.32-.15-1.83-.44-.4-.23-.68-.49-.89-.81-.21-.37-.3-.68-.3-1 0-.32.09-.64.26-.93.19-.34.5-.63.88-.85l.13-.07c.5-.26 1.12-.4 1.75-.4l.54.04c.47.06.92.2 1.3.4.43.25.74.54.93.88.17.3.26.61.26.93 0 .32-.09.64-.26.93-.19.34-.5.63-.88.85l-.2.14v-.02l-.6.34v-.13c-.34.09-.71.14-1.09.14zm-1.85-1.88l.02.04c.12.2.28.34.48.45.71.39 1.75.41 2.47.12l-.13-.22c-.29.11-.62.17-.98.17-.31 0-.77-.05-1.18-.26-.18-.1-.29-.19-.37-.29h-.3l-.01-.01zm3.54-.37v.24l.25-.37a.987.987 0 00-.1-.27c-.1-.17-.27-.33-.48-.45-.4-.22-.86-.32-1.35-.32h-.14c-.45.02-.88.14-1.21.32l-.08.05c-.12.08-.23.17-.31.27h.35l.17-.1c.33-.19.76-.3 1.24-.29.44 0 .85.09 1.16.26.13.08.23.15.31.23l.19.1v.33zm-23.73 1.25c-.56 0-1.12-.13-1.55-.38-.51-.29-.8-.73-.8-1.2s.29-.91.8-1.21c.87-.5 2.23-.5 3.11 0 .51.29.8.73.8 1.21s-.29.91-.8 1.21c-.44.25-1 .38-1.56.38v-.01zm.01-2.1c-.37 0-.75.08-1.02.23-.18.11-.27.22-.27.28 0 .06.08.17.26.28.54.31 1.5.31 2.04 0 .18-.1.26-.22.26-.28 0-.06-.08-.17-.26-.28-.27-.16-.65-.23-1.02-.23h.01z"/><path d="M444.44 904.165c-.67 0-1.33-.16-1.84-.44-.41-.24-.69-.5-.89-.81-.21-.36-.3-.67-.3-1 0-.33.09-.64.26-.94.19-.33.49-.62.87-.85l.81-.47v.15c.35-.1.71-.15 1.08-.15l.54.04c.47.06.92.2 1.3.4.41.24.69.5.89.81.21.37.3.68.3 1 0 .32-.09.63-.25.93-.19.33-.48.61-.83.82-.57.33-1.24.5-1.94.5v.01zm-1.78-2.73l-.06.09c-.08.13-.12.27-.12.4s.04.27.12.4c.12.19.28.33.48.45.39.21.87.32 1.35.32.51 0 1-.12 1.35-.32.23-.14.39-.29.49-.46.07-.13.11-.26.11-.39 0-.1-.02-.2-.07-.31l-.24.53c-.11.2-.26.31-.37.38-.74.43-1.8.4-2.45.05-.2-.12-.31-.21-.38-.31l-.31-.32.32-.38s.03-.05.07-.09v-.05l.27-.15c.19-.11.43-.19.68-.24v-.05h.54c.44 0 .86.09 1.18.26.07.04.13.08.19.12h.37c-.1-.12-.23-.22-.38-.31-.39-.21-.87-.32-1.35-.32h-.14c-.45.02-.88.13-1.21.32l-.43.37-.01.01zm25.08 1.87v-2.4l6.76-.03v2.4l-6.76.03zm1.07-1.33v.25l4.61-.02v-.25l-4.61.02z"/><path d="M455.8 904.785l-10.31-1.49.34-2.38 10.31 1.49-.34 2.38zm-9.09-2.39l8.19 1.18.04-.25-8.19-1.18-.04.26v-.01z"/><path d="M457.25 905.005c-.56 0-1.12-.13-1.55-.38-.51-.29-.8-.73-.8-1.2s.29-.92.8-1.21c.87-.5 2.23-.5 3.11 0 .51.29.8.73.8 1.21s-.29.91-.8 1.21c-.44.25-1 .38-1.56.38v-.01zm-1.01-1.86c-.18.11-.26.22-.26.28 0 .06.08.17.26.28.54.31 1.49.31 2.04 0 .18-.1.26-.22.26-.28 0-.06-.08-.17-.26-.28-.54-.31-1.49-.31-2.03 0h-.01z"/><path d="M457.25 905.665c-.67 0-1.32-.16-1.84-.44-.41-.23-.69-.5-.88-.81l-.06-.11a1.74 1.74 0 01-.24-.89c0-.33.09-.64.26-.94.2-.34.5-.63.87-.85 1.05-.6 2.73-.6 3.77 0 .39.23.68.51.88.85.17.3.26.61.26.93 0 .32-.09.65-.26.93-.19.32-.47.6-.82.81-.57.33-1.24.5-1.94.5v.02zm-1.95-2.28v.04c0 .13.04.27.11.4.12.2.28.34.48.46.39.21.86.32 1.35.32.51 0 1-.12 1.35-.32.24-.15.39-.29.49-.46.07-.13.11-.26.11-.39s-.04-.26-.11-.4c-.1-.17-.27-.33-.49-.46-.71-.41-1.98-.41-2.7 0-.21.12-.38.28-.48.46-.05.09-.09.19-.1.28l.41-.28c.08-.09.18-.17.31-.24.41-.24.89-.29 1.22-.29.46 0 .9.1 1.22.29.17.1.3.21.38.34l.08.13v.29l-.07.12c-.07.14-.19.25-.36.35-.72.41-1.79.4-2.44.05-.19-.11-.31-.21-.39-.32l-.37-.38v.01z"/><path d="M458.63 904.465l-.24-2.39 6.8-.71.25 2.39-6.8.71h-.01zm.93-1.43l.03.25 4.66-.49-.03-.25-4.66.49zm19.49 2.03c-.21 0-.41-.05-.6-.16l-2-1.16a1.199 1.199 0 01-.22-1.91c.39-.37.96-.44 1.43-.18l2.01 1.16c.2.11.35.27.46.48.25.49.15 1.06-.23 1.43-.23.22-.53.33-.83.33l-.02.01zm-.07-1.09s.09.05.16-.02.04-.13.03-.16l-2.05-1.21s-.08-.05-.15.02c-.07.07-.04.13-.03.15l2.05 1.21-.01.01zm-15.56 10.11c-.21 0-.42-.05-.6-.16l-2.31-1.33c-.55-.32-.76-.99-.48-1.56.14-.3.41-.53.72-.63.32-.1.67-.06.96.1l2.31 1.33c.54.32.75.99.49 1.56-.15.31-.41.53-.73.63-.11.04-.23.05-.35.05l-.01.01zm-.06-1.09s.08.02.1.01c.11-.13.09-.2.02-.24l-2.3-1.33s-.09-.02-.11-.01c-.11.13-.09.2-.02.24l2.3 1.33h.01zm-5.7-2.24c-.21 0-.41-.05-.6-.16l-2.31-1.33c-.55-.32-.75-.99-.48-1.56.15-.3.41-.53.72-.63.32-.1.67-.06.96.1l2.31 1.34c.54.32.75.99.49 1.56-.15.3-.41.53-.73.63-.12.04-.24.05-.36.05zm-2.31-2.66h-.04c-.11.13-.09.2-.02.24l2.3 1.33.66.17-.49-.23c.03-.07.01-.14-.06-.18l-2.29-1.33s-.05-.02-.07-.02l.01.02zm-3.45-.67c-.21 0-.42-.05-.6-.16l-2.31-1.33c-.55-.33-.75-.99-.49-1.56.15-.3.41-.53.73-.63.32-.1.67-.06.96.1l2.3 1.33c.55.32.75.99.48 1.56-.14.3-.41.53-.73.63-.12.04-.23.05-.35.05l.01.01zm-2.31-2.66h-.04c-.11.13-.09.2-.02.24l2.3 1.33.66.17-.48-.23c.03-.07 0-.13-.05-.17l-2.3-1.33s-.05-.02-.07-.02v.01zm-3.46-.67c-.21 0-.42-.05-.6-.16l-.41-.24a1.21 1.21 0 01-.48-1.56c.14-.3.41-.53.72-.63.32-.1.67-.06.96.11l.41.24a1.197 1.197 0 01-.25 2.18c-.12.04-.24.05-.36.05l.01.01zm-.41-1.56h-.04c-.11.13-.09.2-.02.24l.4.23.66.17-.48-.23c.03-.06 0-.13-.05-.17l-.41-.24s-.05-.02-.06-.02v.02zm28.14 5.19c-.21 0-.41-.05-.6-.16l-2.3-1.33a1.24 1.24 0 01-.56-.73c-.12-.49.04-.97.43-1.27.39-.3.9-.33 1.32-.09l2.31 1.33c.28.16.47.42.56.73.13.49-.04.97-.43 1.27-.21.16-.47.24-.73.24v.01zm-.06-1.09s.1.03.14 0c.05-.03.06-.08.05-.14l-2.36-1.41s-.1-.03-.14 0c-.05.03-.06.08-.05.14 0 .03.03.06.07.08l2.29 1.32v.01zm-5.7-2.24c-.2 0-.41-.05-.6-.16l-.35-.2c-.28-.16-.47-.42-.56-.73-.12-.48.04-.96.43-1.26.39-.29.91-.33 1.33-.09l.35.2c.28.16.47.41.56.72.13.49-.04.97-.43 1.27-.22.17-.47.25-.73.25zm-.34-1.53s-.05 0-.08.03c-.05.03-.06.08-.05.14l.4.28s.1.02.14-.01c.05-.03.06-.08.05-.14a.124.124 0 00-.06-.08l-.34-.2s-.05-.02-.07-.02h.01z"/><path d="M468.53 911.135c-.21 0-.42-.05-.6-.16l-2.31-1.33a1.203 1.203 0 111.21-2.08l2.31 1.33c.54.32.75.99.49 1.55-.15.31-.41.53-.73.63-.12.04-.24.05-.36.05l-.01.01zm-.07-1.09s.09.02.11.01c.1-.13.08-.2.02-.24l-2.3-1.33-.66-.17.48.23c-.03.07 0 .14.06.18l2.3 1.32h-.01zm-5.69-2.24c-.21 0-.42-.05-.6-.16l-2.31-1.33c-.55-.32-.75-.99-.48-1.56.14-.3.41-.53.73-.63.32-.1.67-.06.95.11l2.31 1.33c.55.32.75.99.48 1.56-.14.3-.41.53-.73.63-.12.04-.24.05-.36.05h.01zm-2.31-2.66h-.04c-.11.13-.09.2-.03.24l2.3 1.33s.08.02.11.01c.11-.13.09-.2.02-.24l-2.3-1.33s-.05-.02-.06-.02v.01zm-24.95 6.27c-.1 0-.21-.01-.31-.04-.31-.08-.57-.28-.73-.56-.33-.57-.13-1.31.44-1.64l1.69-.97c.57-.33 1.31-.13 1.64.43.16.28.2.6.12.91-.08.31-.28.57-.56.73l-1.69.98c-.19.11-.39.16-.6.16zm1.69-2.3s-.05 0-.07.02l-1.69.97c-.06.04-.08.12-.05.18.03.05.12.08.18.05l1.69-.98c.05-.03.08-.12.05-.18-.02-.04-.07-.06-.11-.06zm-10.99 7.67c-.11 0-.21-.01-.32-.04a1.13 1.13 0 01-.72-.56 1.2 1.2 0 01.44-1.64l5.91-3.41c.28-.16.61-.2.91-.12.3.08.57.28.72.56a1.2 1.2 0 01-.44 1.64l-5.91 3.41c-.18.11-.39.16-.6.16h.01zm5.58-5.19l.27.46-5.91 3.42-.05.17.44.51-.27-.46 5.91-3.42.05-.17-.44-.51zm8.07 2.33c-.41 0-.82-.21-1.04-.6-.16-.28-.21-.61-.12-.92.08-.31.28-.57.56-.73l1.68-.98c.28-.16.61-.21.92-.12.31.08.57.28.72.56.16.28.2.6.12.91-.08.31-.28.57-.56.73l-1.69.97c-.19.11-.39.16-.6.16l.01.02zm1.35-2.75l.27.46-1.69.98-.51.44.46-.27c.04.06.11.08.18.05l1.69-.97.04-.18-.44-.51zm-10.65 8.12c-.41 0-.82-.21-1.04-.6-.33-.57-.14-1.31.44-1.64l5.92-3.42c.28-.16.6-.2.91-.12.31.08.57.28.73.56.16.28.2.6.12.91-.08.31-.28.57-.56.73l-5.91 3.42c-.19.11-.39.16-.6.16h-.01zm5.85-4.73l-5.92 3.42c-.06.04-.08.11-.05.17.04.06.11.08.18.05l5.91-3.42.05-.17-.18-.05h.01zm7.79 1.87c-.41 0-.82-.21-1.04-.6-.33-.57-.14-1.31.44-1.64l1.69-.98c.57-.33 1.31-.14 1.64.44.33.58.13 1.31-.44 1.64l-1.69.98c-.19.11-.4.16-.6.16zm1.69-2.3s-.04 0-.06.02l-1.69.98c-.06.04-.08.11-.05.18.04.06.11.08.18.05l1.69-.98c.06-.04.08-.12.05-.18-.02-.04-.06-.06-.11-.06l-.01-.01zm-10.98 7.67c-.42 0-.82-.22-1.04-.61-.16-.27-.2-.59-.12-.9.08-.31.28-.57.56-.73l5.91-3.41c.58-.33 1.31-.13 1.64.44.33.58.13 1.32-.44 1.64l-5.92 3.42c-.19.11-.39.16-.59.16v-.01zm5.91-4.74s-.05 0-.07.02l-5.91 3.41-.05.18c.03.06.11.08.17.05l5.91-3.42c.06-.04.08-.11.05-.18-.02-.04-.06-.06-.11-.06h.01zm-4.32-34.52c-.17 0-.34-.04-.5-.13l-13.94-8.05c-.48-.28-.65-.9-.38-1.38.28-.49.9-.65 1.39-.38l13.94 8.05c.23.13.4.35.47.62a1.011 1.011 0 01-.98 1.27zm-4.65 2.69c-.18 0-.35-.05-.51-.14l-7.76-4.47c-.48-.28-.65-.9-.36-1.39.13-.23.35-.4.61-.47.26-.07.54-.03.77.1l7.75 4.47c.48.28.65.9.37 1.38-.14.24-.36.41-.62.48-.09.02-.17.03-.26.03l.01.01zm-4.66 2.68c-.17 0-.34-.04-.5-.13l-6.19-3.57c-2.69-1.55-3.8-2.19-4.21-2.43 0 0-.04-.02-.05-.03-.11-.06-.15-.09-.16-.09 0 0-.01-.03-.02-.03-.37-.19-.92-.51-1.75-.99-.48-.28-.65-.9-.37-1.39.14-.24.36-.4.62-.47.26-.07.54-.03.77.1 2.39 1.38 3.72 2.15 4.43 2.61.06.01.12.03.18.06l.09.05s.01 0 .02.01l7.64 4.41c.23.14.4.35.47.61.07.26.03.54-.1.77-.19.32-.53.5-.88.5l.01.01zm-4.65 2.69c-.17 0-.34-.04-.5-.13l-17.04-9.84c-.48-.28-.64-.9-.37-1.38.14-.24.36-.41.62-.48s.53-.03.76.11l17.03 9.83a1.017 1.017 0 01.37 1.39c-.19.32-.53.5-.88.5h.01zm-4.62 2.67c-.18 0-.35-.05-.51-.14l-12.38-7.14c-.48-.28-.65-.9-.37-1.38.29-.49.91-.65 1.39-.37l12.38 7.14c.23.13.4.35.47.61a1.025 1.025 0 01-.72 1.25c-.09.02-.17.03-.26.03zm-4.66 2.69c-.18 0-.35-.05-.51-.14l-20.12-11.62c-.48-.28-.65-.9-.37-1.38.14-.23.35-.4.61-.47.26-.07.53-.03.77.1l20.13 11.62a1.01 1.01 0 01.36 1.39c-.13.23-.35.4-.61.47-.09.02-.17.03-.26.03zm-4.66 2.69c-.17 0-.34-.04-.49-.13l-3.1-1.79c-.48-.28-.65-.9-.37-1.38.27-.48.89-.65 1.38-.37l3.1 1.79c.23.13.4.35.47.61.07.26.04.54-.1.77-.19.32-.53.5-.88.5h-.01zm-.93 3.81c-.18 0-.35-.05-.51-.14l-24.69-14.25c-.48-.29-.65-.91-.37-1.39.13-.23.35-.4.61-.47.26-.07.54-.04.77.1l24.69 14.25c.48.28.65.9.37 1.38-.14.24-.36.41-.62.48-.09.02-.17.03-.26.03l.01.01z"/><path d="M383.27 888.135c-.18 0-.4-.05-.53-.29l-.18-.32.29-.39c.16-.18.45-.33.95-.02l1.28.8-1.49.19-.02-.17s.06-.05.09-.08l-.14-.13-.06-.05-.21.34c.07 0 .17 0 .26-.04v.15c-.06 0-.14.02-.23.02l-.01-.01zm.19-1.03l.04.3.19-.07a.631.631 0 00-.23-.23zm4.35 4.12c-.09 0-.18-.01-.27-.04a.998.998 0 01-.61-.47c-.13-.23-.17-.51-.1-.77s.24-.48.47-.61l.45-.26c.48-.27 1.1-.11 1.38.37.28.48.11 1.1-.37 1.38l-.46.26c-.15.09-.33.13-.5.13l.01.01zm17.26 11.17c-.09 0-.18-.01-.27-.04a.979.979 0 01-.61-.48c-.28-.48-.11-1.1.37-1.38 12.05-6.95 18.12-10.46 24.17-13.95l13.63-7.87c.48-.28 1.1-.11 1.38.37.28.49.11 1.11-.37 1.39l-12.84 7.42c-.69.4-1.14.66-1.44.8v.02l-3.09 1.79-20.44 11.8c-.16.09-.33.14-.51.14l.02-.01zm-11.12-7.63c-.35 0-.69-.18-.88-.5-.28-.49-.11-1.11.37-1.39l.45-.26c.48-.28 1.1-.11 1.38.37.14.23.17.51.1.77s-.24.48-.47.61l-.45.26c-.16.09-.33.13-.5.13v.01zm6.09 3.47c-.35 0-.69-.18-.88-.5a.993.993 0 01-.1-.77c.07-.26.24-.48.47-.61l.45-.26c.48-.28 1.1-.11 1.38.37.28.48.11 1.1-.36 1.38l-.46.26c-.16.09-.33.13-.5.13zm14.52 8.2c-.09 0-.18-.01-.27-.04a.998.998 0 01-.61-.47c-.13-.23-.17-.51-.1-.77s.24-.48.47-.61l1.68-.97c.48-.28 1.1-.11 1.38.37.14.24.17.51.1.77s-.24.48-.47.61l-1.68.97c-.15.09-.33.13-.5.13v.01z"/></g><path d="M1406.54 667.75h-51.83V609h-58.75v-51.83h58.75v-58.75h51.83v58.75h58.75V609h-58.75v58.75zm-50.76-1.07h49.69v-58.75h58.75v-49.69h-58.75v-58.75h-49.69v58.75h-58.75v49.69h58.75v58.75zm-111.3 343.53l-.97-.45 7.2-15.56v-41.53c0-3.69 4.69-6.69 10.46-6.69 5.77 0 10.46 3 10.46 6.69v41.53l7.11 15.44-.97.45-7.2-15.77v-41.65c0-3.1-4.21-5.62-9.39-5.62-5.18 0-9.39 2.52-9.39 5.62v41.76l-.05.11-7.25 15.67h-.01z" fill="#75ADD4"/><path d="M1261.1 1081.35c-3.96 0-7.87-.33-11.62-.98-6.64-1.15-12.64-3.28-17.35-6.17-.85-.52-1.67-1.07-2.41-1.63-1.14-.85-2.17-1.75-3.09-2.68-.61-.63-1.18-1.28-1.68-1.94-.5-.66-.96-1.35-1.34-2.04-1.2-2.15-1.81-4.4-1.81-6.68 0-.56.05-1.16.14-1.83l.55-.08-.53-.08c.1-.61.24-1.22.43-1.83.37-1.21.92-2.4 1.64-3.55l19.54-42.26h1.3c2.81-3.68 9.13-6.04 16.22-6.04 7.09 0 13.2 2.28 16.08 5.83h1.44l19.6 42.58c.67 1.08 1.21 2.26 1.58 3.44.19.61.33 1.22.43 1.83v.11c.12.72.17 1.32.17 1.88 0 8.62-8.56 16.27-22.35 19.97-1.14.3-2.32.58-3.51.83-3.66.75-7.5 1.18-11.42 1.29-.66.02-1.33.03-2.01.03zm-16.83-70.68l-19.28 41.7c-.7 1.13-1.21 2.24-1.56 3.36-.17.56-.3 1.12-.39 1.68l-.55.07.53.08c-.09.62-.13 1.17-.13 1.68 0 2.09.56 4.17 1.67 6.15.36.65.79 1.29 1.26 1.92.47.62 1.01 1.24 1.59 1.84.87.89 1.87 1.76 2.96 2.57.72.54 1.5 1.06 2.33 1.57 4.6 2.82 10.47 4.9 16.97 6.03 4.31.75 8.9 1.06 13.41.93 3.86-.11 7.64-.54 11.24-1.27 1.17-.24 2.33-.51 3.44-.81 13.09-3.51 21.56-10.94 21.56-18.93 0-.52-.04-1.06-.13-1.68l.51-.23-.53.08c-.09-.55-.22-1.12-.39-1.68-.34-1.1-.84-2.19-1.5-3.25l-19.34-42.02h-1.28l-.16-.21c-2.6-3.42-8.64-5.62-15.4-5.62s-13.03 2.33-15.52 5.81l-.16.22h-1.16l.01.01z" fill="#75ADD4"/><path d="M1261.1 1081.35c-21.66 0-39.29-9.92-39.29-22.11 0-1.26.2-2.55.59-3.82l28.3-61.22v-41.53c0-3.69 4.69-6.69 10.46-6.69 5.77 0 10.46 3 10.46 6.69v41.53l26.59 57.78c.67 1.08 1.21 2.25 1.58 3.44.39 1.28.59 2.56.59 3.82 0 12.19-17.62 22.11-39.29 22.11h.01zm.07-134.3c-5.18 0-9.39 2.52-9.39 5.62v41.76l-.05.11-28.32 61.26c-.33 1.11-.52 2.29-.52 3.44 0 11.6 17.14 21.04 38.22 21.04s38.22-9.44 38.22-21.04c0-1.15-.18-2.33-.54-3.51-.34-1.1-.84-2.19-1.5-3.25l-26.72-58.05v-41.76c0-3.1-4.21-5.62-9.39-5.62h-.01z" fill="#75ADD4"/><path d="M1261.1 959.36c-5.77 0-10.46-3-10.46-6.69 0-3.69 4.69-6.69 10.46-6.69 5.77 0 10.46 3 10.46 6.69 0 3.69-4.69 6.69-10.46 6.69zm0-12.31c-5.18 0-9.39 2.52-9.39 5.62s4.21 5.62 9.39 5.62c5.18 0 9.39-2.52 9.39-5.62s-4.21-5.62-9.39-5.62zm0 134.3c-21.66 0-39.29-9.92-39.29-22.11s17.62-22.11 39.29-22.11c21.67 0 39.29 9.92 39.29 22.11s-17.62 22.11-39.29 22.11zm0-43.15c-21.07 0-38.22 9.44-38.22 21.04s17.14 21.04 38.22 21.04 38.22-9.44 38.22-21.04-17.14-21.04-38.22-21.04zm0-14.44c-9.77 0-17.71-4.53-17.71-10.1 0-5.57 7.95-10.1 17.71-10.1 9.76 0 17.71 4.53 17.71 10.1 0 5.57-7.95 10.1-17.71 10.1zm0-19.13c-9.18 0-16.64 4.05-16.64 9.03 0 4.98 7.47 9.03 16.64 9.03 9.17 0 16.64-4.05 16.64-9.03 0-4.98-7.47-9.03-16.64-9.03z" fill="#75ADD4"/><g style="mix-blend-mode:multiply" fill="#E83A8D"><path d="M29.05 1085.63h-1.07v111.26h1.07v-111.26z"/><path d="M84.15 1140.72H-27.11v1.07H84.15v-1.07z"/><path d="M67.475 1101.54l-78.673 78.67.757.76 78.673-78.67-.757-.76z"/><path d="M-10.441 1101.55l-.757.75 78.673 78.68.757-.76-78.673-78.67z"/></g><path d="M106.86 660.26c-1.41 0-3.03-.41-4.72-1.2a14.97 14.97 0 01-3.46-2.26c-1.06-.94-1.83-1.92-2.3-2.92-.6-1.28-.65-2.53-.14-3.61l9.33-16.15c.6-1.05 1.11-1.69 3.76-1.69 1.32 0 3.42.76 5.62 2.02 2.2 1.27 3.9 2.71 4.56 3.85.67 1.16.95 1.93.96 2.57 0 .59-.26 1.05-.54 1.54-.32.55-.79 1.4-1.37 2.46l-.16.3c-4.83 8.8-7.89 14.01-9.2 14.63-.67.32-1.46.47-2.33.47l-.01-.01zm2.46-26.77c-2.17 0-2.38.36-2.84 1.16l-9.31 16.11c-.35.76-.3 1.66.16 2.66.4.85 1.11 1.74 2.04 2.57.93.82 2.04 1.54 3.21 2.1 2.4 1.14 4.69 1.41 6.13.73 1.25-.59 6.48-10.11 8.71-14.18l.16-.3c.59-1.07 1.06-1.93 1.38-2.48.26-.45.4-.71.4-1 0-.43-.27-1.1-.82-2.04-.56-.97-2.16-2.29-4.17-3.46-2.01-1.16-3.96-1.88-5.08-1.88l.03.01zM73.8 716.6c-1.98 0-4.09-.59-6.03-1.71-2.6-1.5-4.53-3.75-5.3-6.17-.07-.21-.13-.43-.18-.64l-.02-.07.08-1.13.3-.79 1.76-3.07c.34-.58.86-1.03 1.54-1.34 2.11-.94 5.59-.4 8.65 1.36 2.05 1.18 3.71 2.75 4.68 4.43.47.82.75 1.62.83 2.38.07.75-.06 1.44-.39 2L78 714.83l-.71.84-.88.54c-.21.07-.43.12-.65.17-.63.14-1.29.21-1.96.21v.01zm-10.44-8.69c.04.16.09.33.14.49.69 2.17 2.44 4.2 4.81 5.56 2.37 1.37 5 1.87 7.23 1.38.17-.04.33-.08.49-.13l.62-.4.49-.59 1.65-2.88c.24-.41.32-.87.27-1.39-.06-.6-.29-1.26-.69-1.95-.87-1.51-2.39-2.94-4.28-4.03-1.89-1.09-3.89-1.69-5.64-1.69-.8 0-1.48.13-2.04.37-.47.21-.83.52-1.05.9l-1.72 2.98-.23.63-.04.74-.01.01zm14.52 75.74c-.93 0-1.86-.02-2.79-.05-3.55-.12-7.08-.48-10.81-1.1-5.51-1-10.47-2.47-14.79-4.37-4.96-2.18-9.2-4.98-12.6-8.33h-.02l-.16-.17c-4.61-5.06-5.56-8.55-5.77-13.59l-.13-3.23 1.17 3.02c.13.33.27.66.42.99l-.34.16c.28 4.35 1.31 7.41 5.4 11.9l.02.02c3.33 3.33 7.51 6.11 12.43 8.26 4.24 1.86 9.13 3.31 14.52 4.29 3.7.62 7.19.97 10.69 1.09 3.48.12 6.97.01 10.69-.33 5.47-.58 9.94-1.48 14.09-2.8 4.44-1.42 9.13-3.48 13.26-5.82l.09-6.08h1.07l-.09 6.71-.27.15c-4.25 2.43-9.13 4.58-13.73 6.06-4.22 1.35-8.76 2.26-14.28 2.85-2.8.26-5.45.38-8.07.38v-.01z" fill="#75ADD4"/><path d="M77.93 777.38c-6.27 0-12.38-.7-18.16-2.08l-.11-.03c-4.39-1.06-8.47-2.48-12.11-4.24l-6.35-3.69c-2.98-2.09-5.41-4.43-7.22-6.95l-.61-.85h.03c-1.95-2.99-2.98-6.13-3.09-9.34v-.54c-.01-3.71 1.23-7.32 3.67-10.73 2.42-3.37 5.91-6.39 10.38-8.96l2.56-1.48 3.56 2.28-.58.9-3.01-1.93-2 1.15c-4.33 2.5-7.71 5.41-10.03 8.65-2.24 3.12-3.41 6.4-3.49 9.76v.35c0 3.48 1.18 6.88 3.48 10.1l.19.27c1.76 2.38 4.11 4.6 6.99 6.59h.01l5.99 3.47c3.57 1.72 7.6 3.12 11.96 4.17l.11.03c5.63 1.33 11.57 2.02 17.66 2.03h.16c6.19 0 12.22-.7 17.92-2.06 5.67-1.35 10.76-3.32 15.11-5.83l1.47-.85-9.22-5.32-2.01 1.16c-3.11 1.8-6.71 3.19-10.69 4.14-3.93.94-8.12 1.43-12.44 1.44h-.16c-4.35 0-8.58-.48-12.58-1.43-3.99-.96-7.59-2.35-10.69-4.14-1.75-1.01-4.12-2.69-5.49-4.37l.83-.68c1.28 1.57 3.6 3.2 5.19 4.12 3.01 1.74 6.52 3.1 10.41 4.03 3.87.93 7.97 1.4 12.19 1.41h.15c4.29 0 8.44-.48 12.34-1.41 3.88-.93 7.38-2.28 10.4-4.03l2.54-1.46 11.37 6.56-3.08 1.78c-4.45 2.57-9.63 4.57-15.4 5.95-5.73 1.37-11.79 2.07-18 2.09h-.17l.02-.03zm-5.3-68.29l-14.33-8.27c-4.26-2.99-.92-9.75-.2-11.07l21.64-37.49c.8-1.29 5-7.57 9.66-5.39l14.37 8.29-.45.97c-3.75-1.36-6.82 2.52-8.33 4.96l-21.63 37.46c-1.35 2.51-3.17 7.12-.12 9.68l-.61.87v-.01zm14.79-61.62c-3.35 0-6.38 4.72-6.76 5.33l-21.63 37.46c-.38.71-3.71 7.16-.16 9.65l12.08 6.97c-1.22-2.96.27-6.65 1.47-8.87l21.65-37.49c1.33-2.16 3.78-5.3 6.95-5.72l-12.11-6.99c-.5-.23-1-.33-1.49-.33v-.01zm-2.6 89.56l-6.65-3.79.55-.5c4.45-4.05 8.51-9.16 11.76-14.78 4.3-7.45 6.48-13.71 7.29-20.95l1.07.12c-.81 7.29-3.1 13.88-7.42 21.36-3.17 5.49-7.11 10.5-11.42 14.54l4.63 2.63c.09-.11.17-.21.25-.32.15-.19.3-.38.5-.61 3.76-4.58 6.29-7.98 8.46-11.37 2.54-3.95 4.62-7.99 6.56-12.7 1.73-4.2 3.07-8.44 3.97-12.59.87-4.05 1.27-6.51 1.27-10.37h1.07c0 3.96-.4 6.47-1.29 10.59-.91 4.21-2.27 8.51-4.02 12.78-1.97 4.77-4.08 8.86-6.65 12.87-2.19 3.42-4.75 6.86-8.55 11.48-.2.23-.34.4-.48.57-.17.22-.35.44-.59.7l-.29.31-.02.03z" fill="#75ADD4"/><path d="M89.72 739.61l-.72-.79c13.54-12.44 24.54-34.34 18.25-50.43l1-.39c6.46 16.54-4.72 38.93-18.52 51.61h-.01z" fill="#75ADD4"/><path d="M70 761.58h-.32v-1.07c3.45.06 6.95-.66 10.42-2.09a42.78 42.78 0 005.04-2.5c5.24-3.03 10.29-7.24 15-12.51 6.69-8.14 11.09-14.43 15.13-24.23 3.51-8.51 5.36-17.07 5.36-24.74 0-6.05-1.11-11.2-3.32-15.32-.96 2.24-2.47 4.17-3.95 6.05l-.66.84c-.48.62-1.14 1.08-1.93 1.38 1.65 3.24 2.49 7.23 2.49 11.86 0 14.23-8.29 31.62-20.16 42.3l-.72-.8c11.66-10.49 19.8-27.55 19.8-41.5 0-4.73-.9-8.75-2.67-11.93l-.35-.62.7-.16c.86-.2 1.53-.59 1.99-1.18l.66-.85c1.65-2.11 3.36-4.28 4.18-6.82l.36-1.12.6 1.01c2.67 4.45 4.03 10.12 4.03 16.86 0 7.81-1.88 16.5-5.44 25.15-4.09 9.93-8.53 16.28-15.3 24.52-4.81 5.37-9.94 9.65-15.28 12.74-1.76 1.01-3.5 1.87-5.17 2.56-3.5 1.44-7.04 2.17-10.51 2.17H70z" fill="#75ADD4"/><path d="M60.93 762.45l-32.38-18.69 34.98-20.2 32.39 18.7-34.98 20.19h-.01zm-30.24-18.7l30.24 17.46 32.84-18.96-30.24-17.46-32.84 18.96z" fill="#75ADD4"/><path d="M61.46 765.92l-32.95-18.6.04-4.19 32.9 18.38v4.41h.01zM29.6 746.7l30.8 17.38v-1.94l-30.78-17.19-.02 1.75z" fill="#75ADD4"/><path d="M60.93 766.15c-.63 0-1.15-.51-1.15-1.15v-3.71h.14c.1-.19.25-.35.44-.46l.53.93s-.03.04-.03.06v3.17l.02-.01.14.05 33.86-19.55.04-3.24h1.07v3.71h-.14c-.1.19-.25.34-.43.45l-33.86 19.55c-.15.11-.38.18-.62.18l-.01.02zm23.3-51.08c-.68 0-1.31-.15-1.88-.48-2.7-1.55-7.43-4.29-10.12-5.84-2.73-1.58-2.82-6.55-.2-11.09l21.63-37.47c2.62-4.54 6.97-6.95 9.7-5.38l1.39.8c2.63 1.52 7.72 4.46 8.73 5.04 2.57 1.48 2.84 5.9.63 10.28l-.96-.48c1.91-3.8 1.82-7.69-.21-8.87-1.01-.58-6.1-3.52-8.73-5.04l-1.39-.8c-2.18-1.26-5.95 1.03-8.24 4.98l-21.63 37.47c-2.29 3.96-2.38 8.36-.2 9.62 2.69 1.56 7.43 4.29 10.12 5.84 2.18 1.25 5.95-1.02 8.24-4.98l13.1-22.69.93.54-13.1 22.69c-2.08 3.59-5.24 5.85-7.82 5.85l.01.01z" fill="#75ADD4"/><path d="M106.12 688.75c-.19 0-.39-.05-.57-.15l-3.61-2.11c-2-1.47-2.77-3.96-2.23-7.19.46-2.75 1.81-5.44 2.91-7.04l.24-.34c5.46-7.4 9.38-5.09 13.16-2.87l.59.34c.5.27.72.87.53 1.4-.11.29-.32.52-.6.64-.28.13-.59.14-.87.03-2-.75-3.93.27-5.21 1.25-1.27.99-2.44 2.36-3.37 3.97-.93 1.61-1.54 3.31-1.76 4.91-.22 1.59-.13 3.78 1.52 5.14.43.35.54.96.26 1.45-.21.37-.6.57-1 .57h.01zm4.16-20.79c-1.93 0-4.01 1.14-6.55 4.59l-.23.32c-1.04 1.5-2.3 4.03-2.73 6.61-.33 1.96-.28 4.61 1.82 6.16l.1.07 3.4 1.96.08-.12c-1.58-1.31-2.26-3.48-1.9-6.11.23-1.73.89-3.56 1.89-5.3 1-1.73 2.26-3.21 3.64-4.28 2.1-1.63 4.32-2.12 6.24-1.4l.05-.14c-.11-.06-.23-.13-.36-.21l-.25-.14c-1.77-1.04-3.42-2.01-5.2-2.01z" fill="#75ADD4"/><path d="M107.95 688.62c-.76 0-1.47-.18-2.1-.54-1.5-.87-2.33-2.65-2.33-5.01 0-4.65 3.27-10.32 7.3-12.64 2.05-1.18 4.01-1.36 5.51-.49 1.5.87 2.33 2.65 2.33 5.01 0 4.65-3.27 10.32-7.3 12.64-1.19.69-2.35 1.03-3.41 1.03zm6.28-18.16c-.87 0-1.85.3-2.87.89-3.73 2.15-6.76 7.41-6.76 11.71 0 1.97.64 3.42 1.79 4.09 1.16.67 2.73.49 4.43-.49 3.73-2.15 6.76-7.41 6.76-11.71 0-1.97-.64-3.42-1.79-4.09-.46-.27-.99-.4-1.57-.4h.01z" fill="#75ADD4"/><path d="M107.96 688.01c-.66 0-1.27-.15-1.79-.46-.53-.3-.96-.75-1.3-1.33-.48-.83-.72-1.9-.72-3.16 0-2.15.72-4.59 2.03-6.86 1.34-2.32 3.1-4.18 4.96-5.25 1.85-1.07 3.61-1.24 4.9-.5.52.3.96.75 1.29 1.33.48.84.73 1.91.73 3.16 0 2.12-.7 4.52-1.98 6.77l-.07.13c-1.32 2.29-3.08 4.14-4.94 5.22-1.09.63-2.13.95-3.1.95h-.01zm6.27-16.94c-.77 0-1.64.27-2.57.81-1.7.98-3.32 2.7-4.55 4.83-1.23 2.14-1.9 4.39-1.9 6.36 0 1.06.2 1.97.58 2.63.24.41.54.72.9.93.95.55 2.34.37 3.83-.49 1.67-.97 3.26-2.63 4.48-4.71l.07-.13c1.23-2.12 1.9-4.38 1.9-6.35 0-1.05-.2-1.96-.58-2.63-.24-.41-.54-.73-.9-.93-.36-.21-.78-.31-1.26-.31v-.01zm-53.16 84.57l-21.48-12.4 21.48-12.4 21.47 12.4-21.47 12.4zm-19.33-12.4l19.33 11.16 19.33-11.16-19.33-11.16-19.33 11.16z" fill="#75ADD4"/><path d="M61.07 747.49c-1.95 0-3.89-.43-5.37-1.28-1.54-.89-2.38-2.1-2.38-3.41s.85-2.53 2.38-3.41c2.96-1.71 7.78-1.71 10.74 0 1.54.89 2.38 2.1 2.39 3.41 0 1.31-.85 2.52-2.38 3.41-1.48.86-3.43 1.28-5.37 1.28h-.01zm0-8.34c-1.75 0-3.5.38-4.83 1.15-1.19.69-1.85 1.57-1.85 2.49 0 .92.66 1.79 1.85 2.48 2.67 1.54 7.01 1.54 9.68 0 1.19-.69 1.85-1.57 1.85-2.48 0-.91-.66-1.8-1.85-2.48-1.33-.77-3.08-1.15-4.84-1.15l-.01-.01z" fill="#75ADD4"/><path d="M-1.95 299.74L171.11 0H-175L-1.95 299.74zM1464.22 989.9l173.05 299.74h-346.11l173.06-299.74z" fill="#FCEA10"/><g style="mix-blend-mode:multiply" fill="#75ADD4"><path d="M151.27 1521.32c-.12 0-.24 0-.35-.02a2.68 2.68 0 01-1.63-.79c-.4-.41-.7-.96-.84-1.6a5.23 5.23 0 01-.08-1.83l.02-.13 2.06-6.99c.02-.07.06-.17.11-.26.51-.8 1.13-1.5 1.79-2.04.7-.57 1.44-.96 2.14-1.12l3.14-.73c1.33-.31 2.39.11 3.05 1.21.36.59.57 1.37.63 2.31.05.81-.01 1.73-.2 2.72-.68 3.66-2.92 7.74-5.91 8.44l-3.14.73c-.27.06-.54.1-.8.1h.01zm7.17-14.78c-.19 0-.4.03-.63.08l-3.14.73c-.58.14-1.21.47-1.8.96-.59.49-1.15 1.12-1.61 1.84l-2.08 7.07c-.06.54-.04 1.06.07 1.51.11.49.33.91.62 1.21.31.31.69.5 1.13.55.27.03.56.01.87-.06l3.14-.73c2.61-.61 4.68-4.47 5.29-7.79.17-.91.23-1.78.18-2.52-.05-.79-.23-1.46-.51-1.93-.37-.61-.87-.91-1.53-.91v-.01z"/><path d="M150.29 1521.13l-4.75-2.44c-.27-.27-.55-1.02-.99-2.67l-.07-.27 1.96-8.08c.25-.61.46-.91.72-1.21.22-.26.47-.51.8-.81.78-.59 1.99-1.1 3.28-1.41.7-.17 2.02-.4 2.92-.1l5.44 2-4.94 1.23c-.72.23-1.36.59-1.93 1.08-.47.41-.9.91-1.43 1.68l-2.09 7.03c-.02.28.38 1.38.59 1.97.23.64.36 1.02.39 1.22l.12.79-.02-.01zm-4.2-3.07l2.98 1.52-.06-.18c-.4-1.11-.66-1.87-.64-2.25 0-.08.02-.16.04-.24l2.05-6.97c.03-.11.09-.22.16-.31.55-.8 1.04-1.36 1.55-1.81.65-.57 1.39-.99 2.25-1.26l2.36-.59-2.91-1.07c-.5-.17-1.4-.12-2.45.13-1.16.27-2.29.75-2.94 1.24-.27.25-.5.48-.7.72-.18.2-.35.43-.56.92l-1.89 7.81.02.07c.44 1.65.66 2.12.75 2.26l-.01.01zm50.64-40.21c-1.06 0-2.05-.25-2.92-.75-2.1-1.21-3.26-3.74-3.26-7.1 0-6.76 4.77-15.02 10.63-18.41 2.92-1.68 5.68-1.94 7.78-.73 2.1 1.21 3.26 3.74 3.26 7.1 0 6.77-4.77 15.02-10.63 18.41-1.71.99-3.36 1.48-4.86 1.48zm4.86-25.55c-5.63 3.25-10.21 11.19-10.21 17.69 0 3.06 1.01 5.33 2.85 6.39 1.84 1.06 4.31.8 6.96-.73 5.63-3.25 10.21-11.19 10.21-17.69 0-3.06-1.01-5.33-2.85-6.39-1.83-1.06-4.31-.8-6.96.73z"/><path d="M144.81 1516.78c-.27-.24-1.48-1.11-2.89-2.11-4.24-3.02-6.32-4.55-6.64-5.09-1.11-1.88-1.72-4.29-2.16-8.6l-1.64-28.6.82-.05 1.64 28.58c.43 4.16 1 6.48 2.05 8.25.31.5 4.13 3.22 6.4 4.84 1.49 1.06 2.66 1.9 2.97 2.17l-.55.61zm27.15-23.17l-.14-.03-.75-.15.41-.53c4.22-5.45 6.66-10.36 7.92-15.9.75-3.29 1.06-14.51.94-33.36v-.53l.51.12c.18.04.39.07.63.09h.11l.09.07c.06.04.29.23.55.44.26.21.69.57.78.63l-.39.73c-.11-.05-.31-.22-.92-.72-.16-.13-.31-.26-.41-.33-.05 0-.09 0-.13-.01.11 18.62-.21 29.74-.96 33.06-1.29 5.67-3.78 10.68-8.07 16.23l-.1-.08-.08.28.01-.01z"/><path d="M176.82 1499.38l-2.32-3.81.18-.23c4.08-5.1 6.52-9.73 7.92-14.99 1.33-5 1.38-26.55 1.4-33.63v-1.94c-.03-.12-.03-.27-.03-.42v-.24l4.15-2.4v-.21h.83-.41l.41.02c0 .24.01.44.01 1.43.01 21.01-.59 33.84-1.81 38.11-1.8 6.33-4.78 11.67-9.97 17.86l-.37.44.01.01zm-1.32-3.75l1.42 2.34c4.95-5.98 7.7-10.97 9.44-17.11 1.19-4.21 1.79-16.95 1.78-37.89v-.31l-3.32 1.92c0 .3.01.49 0 1.57v.57c-.02 7.86-.06 28.74-1.43 33.84-1.41 5.3-3.85 9.96-7.9 15.07h.01zm7.42-50.46l-4.8-3.44v-2.23c-.01-1.23-.09-2.33-.24-3.37a20.92 20.92 0 00-.79-3.36c-.45-1.22-.89-2.12-1.41-2.92l-.66-.83.64-.52.69.86c.58.89 1.04 1.84 1.52 3.12.39 1.22.66 2.36.83 3.53.16 1.07.24 2.21.25 3.48v1.81l4.46 3.19-.48.67-.01.01zm-48.66 28.87c-.2 0-.39-.06-.55-.17l-5.13-2.96a.958.958 0 01-.48-.84v-2.34c.09-6.8 1.73-14.16 4.77-21.29 3.08-7.24 7.47-14.08 12.69-19.77.23-.25 5.76-6.17 11.24-8.05l.27.78c-5.29 1.81-10.85 7.77-10.9 7.83-5.16 5.62-9.49 12.37-12.54 19.53-2.99 7.04-4.62 14.29-4.7 20.97v2.33s.02.09.07.12l5.15 2.98.11.87v.01zm50.22-54.91l-.35-.19h-.4s0 .03.01.03c0 0-.01-.02-.02-.03h-.01c-.13-.17-.55-.48-.97-.72l-4.29-2.7c-2.03-1.05-4-1.64-6.07-1.84-2.02-.17-5.85.79-7.57 1.9l-.45-.69c1.87-1.21 5.87-2.22 8.09-2.03 2.18.21 4.25.84 6.35 1.92l.09.04 4.28 2.7c1.67.96 1.42 1.42 1.32 1.61h-.01zm-.72-.39s0 .01-.01.02v-.02h.01zm17.1 55.84l-4.22-2.44c-.91-.76-1.48-1.62-1.72-2.62-.26-1.05-.17-2.24-.04-3.26.37-1.87.96-3.49 1.83-5 .87-1.5 1.97-2.82 3.38-4.06.89-.67 1.84-1.32 2.87-1.62 1.01-.29 2.03-.22 3.13.19l4.26 2.45-1.24.14c-1.49.17-2.96.97-4.37 2.35-1.61 1.59-3.07 3.91-3.99 6.36-.19.5-.35.99-.47 1.44-.23 1.17-.44 2.54-.22 3.81.07.4.18.76.32 1.12l.46 1.12.02.02zm-3.72-3.09l2.17 1.25c-.02-.08-.03-.17-.05-.25-.24-1.41-.03-2.86.22-4.1.14-.54.31-1.05.51-1.58.96-2.57 2.49-5 4.19-6.66 1.2-1.19 2.46-1.97 3.75-2.36l-2.18-1.26c-.89-.32-1.71-.38-2.54-.14-.92.27-1.79.87-2.6 1.47-1.32 1.16-2.37 2.41-3.17 3.8-.83 1.45-1.4 2.99-1.74 4.74-.11.92-.2 2.01.03 2.93.2.82.65 1.51 1.42 2.16h-.01z"/><path d="M203.79 1476.34c-.8 0-1.56-.19-2.22-.57-1.46-.84-2.3-2.55-2.3-4.69 0-4.45 3.46-10.35 7.41-12.63 1.81-1.05 3.59-1.17 5.01-.35 1.54.89 2.43 2.77 2.43 5.15 0 4.45-3.14 9.89-6.99 12.11-1.13.65-2.27.98-3.33.98h-.01zm5.86-17.95c-.8 0-1.67.26-2.56.77-3.66 2.11-6.99 7.79-6.99 11.92 0 1.86.67 3.27 1.89 3.97 1.28.74 3 .59 4.72-.41 3.63-2.09 6.58-7.21 6.58-11.4 0-2.08-.74-3.7-2.02-4.43-.49-.28-1.03-.42-1.62-.42zm-41.43 52.67l-.55-.28c-3.32-1.7-8.87-4.55-6.43-10.91l.07-.16c.55-1.27 2.16-3.31 3.82-4.86 1.32-1.23 3.83-3.19 5.72-2.46.86.36 1.93 1.18 2.96 1.98.76.59 1.49 1.14 2.07 1.48l-.41.72c-.63-.36-1.38-.94-2.16-1.54-.99-.77-2.02-1.56-2.77-1.87-1.07-.41-2.85.43-4.86 2.3-1.78 1.66-3.19 3.6-3.62 4.58l-.06.14c-2.17 5.66 2.58 8.09 6.05 9.87l.55.28-.38.73z"/><path d="M169.52 1511.32c-.73 0-1.4-.3-1.96-.91-2.04-2.21-1.83-7.59 1.31-10.48l3.13-2.89c1.28-1.17 2.68-1.62 3.76-1.18l.15.06 2.16 4.86c.27 2.02-.84 4.69-2.64 6.35l-3.14 2.89c-.94.87-1.9 1.31-2.78 1.31l.01-.01zm5.38-14.8c-.69 0-1.54.4-2.33 1.13l-3.13 2.89c-2.94 2.71-2.87 7.57-1.26 9.32.91.99 2.18.83 3.57-.45l3.14-2.89c1.58-1.45 2.6-3.84 2.39-5.58l-1.96-4.38c-.13-.04-.27-.05-.41-.05l-.01.01zm-15.86-73.64l-2.25-1.65-.17-.42v-.08c.01-2.85.46-5.92.73-7.49.4-1.76 1.02-3.58 1.85-5.43 2.64-5.91 7.04-11.52 12.08-15.39 5.28-4.05 10.73-5.55 16.2-4.46l3.96.79-4.04.02h-.87c-1.4-.02-2.6-.03-4.35.5l-.21-.7c-3.43.43-6.84 1.93-10.19 4.5-4.93 3.79-9.24 9.28-11.83 15.07-.8 1.8-1.4 3.56-1.79 5.25-.25 1.51-.69 4.49-.71 7.26l.02.05 2.06 1.51-.49.67zm42.01 36.82a.83.83 0 01-.4-.11l-2.15-1.24-.04-27.03c-.05-5.33-.27-9.63-.7-13.94-.49-3.95-1.05-6.96-1.89-10.05-1-3.24-1.96-5.65-3.93-8.37l-1.62-2.02c-.09-.08-.44-.42-.14-.73.56-.59 3.67 2.26 3.7 2.29 2.2 2.38 3.25 4.44 4.43 7.41.98 2.8 1.64 5.42 2.27 9.04.79 5.31 1.15 10.64 1.23 17.82l.04 26.13c0 .29-.15.55-.4.69-.12.07-.26.11-.4.11zm-1.72-1.83l1.71.99-.05-26.08c-.07-7.14-.43-12.43-1.21-17.69-.63-3.57-1.27-6.15-2.23-8.89-1.14-2.87-2.15-4.86-4.25-7.12-.16-.15-.39-.34-.65-.55 2.01 2.8 3 5.27 4.02 8.58.85 3.15 1.42 6.19 1.92 10.19.44 4.34.66 8.66.71 14.03l.04 26.56-.01-.02z"/><path d="M201.65 1459.58c-.09 0-.17-.02-.26-.05a.616.616 0 01-.37-.58l-.04-26.17c-.05-23.64-4.58-35.43-14.26-37.09-4.2-.72-11.07 2.44-15.63 7.19-3.7 3.86-6.1 8.82-6.11 12.65l.28 4.3-6 3.3-.34-4.54c.01-6.65 3.7-14.6 9.63-20.78 6.35-6.62 15.26-10.68 21.18-9.66 11.77 2.03 17.28 15.25 17.33 41.61l.05 27.49h-.41c-.86 0-1.84.3-2.82.87-.6.35-1.2.78-1.77 1.31-.12.11-.27.17-.43.17l-.03-.02zm-16.16-64.82c.48 0 .94.04 1.37.11 6.39 1.1 14.88 6.23 14.94 37.91l.04 25.74c.52-.44 1.06-.82 1.6-1.13.98-.57 1.93-.89 2.83-.96l-.04-26.68c-.03-16.29-1.79-38.24-16.65-40.8-5.58-.97-14.37 3.09-20.45 9.42-5.79 6.03-9.39 13.76-9.4 20.18l.25 3.23 4.42-2.43-.24-3.8c0-4.11 2.44-9.18 6.34-13.24 4.27-4.45 10.54-7.54 14.99-7.54v-.01zm-36.67 123.9l-.43-.17c-4.52-1.79-8.89-5.84-10.62-9.83-1.76-4.03-2.89-22.9-2.9-31.43 0-.61-.01-1.72-.03-2.7-.01-.93-.02-1.75-.02-1.95v-.23l.21-.12c1.36-.77 3.99-2.28 4.24-2.43l.63-.4v2.46c.03 7.47.7 28.62 2.02 31.96 1.26 3.18 4.44 6.84 8.47 7.34l.47.06-2.04 7.43v.01zm-13.17-45.82c0 .35.01.99.02 1.69.01.99.03 2.1.03 2.71 0 8.46 1.12 27.16 2.83 31.1 1.6 3.68 5.57 7.42 9.74 9.21l1.55-5.63c-4.15-.75-7.32-4.4-8.66-7.79-1.47-3.73-2.05-26.48-2.08-32.26v-1c-.99.57-2.81 1.61-3.43 1.96v.01z"/><path d="M134.11 1473.91l-.26-3.13c0-4.45.74-9.2 2.21-14.15 4.16-14 13.46-27.27 24.27-34.64 9.65-5.57 18.21-6.75 24.12-3.34 5.27 3.04 8.06 9.52 8.06 18.73v2.52l-9.76 5.64v-3c0-.82-.04-1.62-.11-2.38-.2-2.04-.66-3.86-1.36-5.41-1.27-2.81-3.32-4.73-5.93-5.57-3.39-1.09-7.63-.31-11.96 2.18-8.04 4.64-15.21 14.33-18.28 24.67-.99 3.33-1.49 6.56-1.49 9.59v2.52l-2.06 1.19-5.09 3.37-2.36 1.21zm.56-3.14l.16 1.85 1.22-.63 5.07-3.36 1.67-.96v-2.04c0-3.11.51-6.41 1.53-9.82 3.13-10.53 10.45-20.41 18.66-25.15 4.53-2.62 9.01-3.42 12.63-2.26 2.84.91 5.06 3 6.43 6.02.74 1.63 1.22 3.54 1.43 5.67.08.79.11 1.62.11 2.46v1.57l8.11-4.69v-2.04c0-8.9-2.64-15.13-7.65-18.02-5.65-3.26-13.91-2.08-23.27 3.32-10.63 7.25-19.81 20.35-23.92 34.18-1.44 4.86-2.17 9.53-2.18 13.89v.01z"/></g><path d="M1325.18 1515.35l-20.47-11.81.81-3.85c2.26-9.35 6.93-18.13 13.16-24.74 5.27-5.58 16.62-13.88 25.73-9.58l16.04 9.7.54 1.84-1-.14c-9.92-1.38-20.19 8.48-24.7 14.52-4.94 6.64-7.92 13.57-9.94 23.19l-.18.88.01-.01zm-19-12.47l18.1 10.45c2.06-9.37 5.07-16.23 9.98-22.83 4.37-5.86 14.02-15.18 23.84-15.18h.3l-14.59-8.83c-8.39-3.96-19.15 4-24.18 9.33-6.08 6.45-10.64 15.02-12.84 24.14l-.61 2.91v.01z" fill="#E83A8D"/><path d="M1290.26 1567.88l-19.29-11.14c-8.77-5.12-12.69-11.17-12.73-19.63-.05-11.66 4.87-24.35 13.15-33.94 5.21-6.04 16.53-15.35 25.93-11.96 1.46.52 10.04 5.52 17.98 10.16 1.36.79 2.43 1.42 3.01 1.76l-.59 1.15-1.6-.73c-4.85-1.74-10.53.78-12.75 1.94-11.87 6.26-22 21.6-24.09 36.49-1.69 12.07 1.46 18.79 11.64 24.79l-.65 1.12-.01-.01zm2.77-76.1c-7.85 0-16.37 7.28-20.65 12.24-8.08 9.37-12.88 21.74-12.83 33.09.03 7.95 3.76 13.66 12.08 18.51l11.04 6.38c-4.65-5.07-5.94-11.24-4.68-20.21 2.14-15.26 12.56-31.02 24.77-37.45 2.32-1.22 6.33-2.91 10.49-2.67-5.62-3.28-15.02-8.75-16.36-9.24-1.25-.45-2.54-.65-3.85-.65h-.01z" fill="#E83A8D"/><path d="M1324.99 1578.49l-.45-.14c-2.65-.79-5.87-1.53-9.28-2.31-15.92-3.64-37.73-8.63-37.73-27.79 0-10.85 3.93-21.99 11.06-31.36 6.49-8.53 14.63-14.18 21.77-15.11 6.84-.9 11.84 2.57 14.27 9.79 5.08-22.28 22.4-37.39 35.02-36.16 7.8.77 12.28 7.73 12.28 19.1 0 18.86-21.59 48.72-37.35 70.52-3.42 4.73-6.65 9.19-9.31 13.07l-.27.39h-.01zm-12.63-75.55c-.59 0-1.2.04-1.83.12-14.27 1.87-31.7 23.09-31.7 45.18 0 18.13 21.22 22.98 36.72 26.53 3.24.74 6.31 1.44 8.91 2.2 2.62-3.8 5.75-8.13 9.06-12.71 15.66-21.66 37.1-51.33 37.1-69.76 0-10.78-3.94-17.1-11.11-17.81-12.34-1.21-29.49 14.23-33.95 36.7-.08.41-.42.7-.83.72-.4.07-.78-.26-.89-.66-1.82-6.84-5.87-10.51-11.48-10.51z" fill="#E83A8D"/></g><defs><clipPath id="clip0_183_769"><path fill="#fff" transform="translate(-175)" d="M0 0h1812.27v1578.49H0z"/></clipPath></defs></svg>