<svg width="28" height="27" fill="none" xmlns="http://www.w3.org/2000/svg"><path d="M14 8.79a4.373 4.373 0 00-4.369 4.369c0 2.4 1.969 4.368 4.369 4.368 2.4 0 4.369-1.968 4.369-4.368 0-2.4-1.969-4.37-4.369-4.37zm13.125 4.369c0-1.82 0-3.6-.094-5.42-.093-2.1-.581-3.974-2.118-5.493C23.375.71 21.519.221 19.419.127 17.6.034 15.819.034 14 .034c-1.819 0-3.6 0-5.419.093-2.1.094-3.975.582-5.493 2.12C1.55 3.783 1.062 5.64.968 7.74c-.093 1.819-.093 3.6-.093 5.419 0 1.818 0 3.6.094 5.418.094 2.1.581 3.975 2.119 5.494C4.624 25.61 6.48 26.096 8.58 26.19c1.819.094 3.6.094 5.419.094 1.819 0 3.6 0 5.419-.094 2.1-.094 3.975-.581 5.494-2.119 1.537-1.537 2.024-3.394 2.118-5.494.113-1.8.094-3.6.094-5.418zM14 19.889c-3.731 0-6.731-3-6.731-6.73 0-3.732 3-6.732 6.731-6.732s6.731 3 6.731 6.732c0 3.73-3 6.73-6.731 6.73zm7.012-12.168a1.572 1.572 0 01-1.575-1.575 1.56 1.56 0 011.575-1.575 1.56 1.56 0 011.575 1.575 1.5 1.5 0 01-.45 1.106 1.5 1.5 0 01-1.106.45l-.018.02z" fill="#2D5AA6"/></svg>