<svg width="30" height="31" fill="none" xmlns="http://www.w3.org/2000/svg"><path fill-rule="evenodd" clip-rule="evenodd" d="M10.82.75A15.021 15.021 0 00.06 13.82h6.857a33.857 33.857 0 013.9-13.072l.002.002zM6.916 16.498H.06a15.022 15.022 0 0010.757 13.071 33.857 33.857 0 01-3.9-13.071zm7.337 13.643a31.072 31.072 0 01-4.65-13.643h10.79a31.07 31.07 0 01-4.65 13.643 14.81 14.81 0 01-1.49 0zm4.929-.574a15.021 15.021 0 0010.757-13.07h-6.857a33.856 33.856 0 01-3.9 13.072v-.002zm3.9-15.748h6.857A15.022 15.022 0 0019.183.748a33.856 33.856 0 013.9 13.071zM14.254.176a14.85 14.85 0 011.492 0 31.07 31.07 0 014.648 13.643H9.606A31.015 31.015 0 0114.254.176z" fill="#2D5AA6"/></svg>