<svg width="28" height="22" fill="none" xmlns="http://www.w3.org/2000/svg"><path d="M27.075 2.659c-.962.437-2 .725-3.075.862A5.373 5.373 0 0026.35.546a10.801 10.801 0 01-3.4 1.313C21.962.784 20.575.159 19 .159c-2.938 0-5.338 2.4-5.338 5.362 0 .425.05.838.138 1.225a15.243 15.243 0 01-11.05-5.6 5.305 5.305 0 00-.725 2.688c0 1.862.938 3.512 2.388 4.45-.888 0-1.713-.25-2.438-.625v.037c0 2.6 1.85 4.775 4.3 5.263a5.25 5.25 0 01-2.412.087 5.35 5.35 0 005 3.725 10.65 10.65 0 01-6.663 2.3c-.425 0-.85-.025-1.275-.075A15.18 15.18 0 009.15 21.41c9.85 0 15.263-8.175 15.263-15.263 0-.237 0-.462-.013-.7 1.05-.75 1.95-1.7 2.675-2.787z" fill="#2D5AA6"/></svg>